<?xml version="1.0" standalone="no"?>
<!DOCTYPE svg PUBLIC "-//W3C//DTD SVG 20010904//EN"
 "http://www.w3.org/TR/2001/REC-SVG-20010904/DTD/svg10.dtd">
<svg version="1.0" xmlns="http://www.w3.org/2000/svg"
 width="1920.000000pt" height="930.000000pt" viewBox="0 0 1920.000000 930.000000"
 preserveAspectRatio="xMidYMid meet">

<g transform="translate(0.000000,930.000000) scale(0.100000,-0.100000)"
fill="#000000" stroke="none">
<path d="M0 4650 l0 -4650 4825 0 4825 0 0 4650 0 4650 -4825 0 -4825 0 0
-4650z m3098 3004 c106 -44 162 -163 162 -346 0 -166 -48 -337 -142 -503 -62
-109 -190 -240 -276 -282 -80 -39 -162 -39 -220 0 -136 89 -171 345 -85 622
107 343 376 587 561 509z m-242 -1409 c-33 -28 -56 -34 -35 -9 11 14 42 31 59
33 3 1 -8 -10 -24 -24z m-35 -35 c5 0 9 -5 9 -11 0 -6 -7 -9 -15 -5 -8 3 -15
1 -15 -4 0 -6 -6 -10 -13 -10 -8 0 -22 -18 -32 -40 -19 -41 -30 -49 -38 -27
-3 6 -4 -4 -3 -23 1 -28 -3 -35 -19 -36 -11 -1 -24 -2 -29 -3 -5 -1 -3 -8 4
-16 10 -12 5 -22 -29 -55 -22 -22 -41 -43 -41 -45 0 -3 0 -9 0 -13 0 -4 -16
-24 -35 -43 -19 -20 -44 -57 -55 -83 -11 -26 -24 -45 -29 -42 -5 3 -11 -3 -14
-14 -4 -14 -11 -18 -24 -14 -14 5 -15 4 -4 -4 12 -9 12 -12 0 -26 -8 -8 -20
-22 -27 -31 -7 -8 -17 -13 -22 -10 -6 4 -7 -7 -4 -24 5 -23 2 -32 -10 -37 -9
-3 -16 -12 -16 -19 0 -7 -6 -18 -14 -24 -12 -10 -12 -4 0 44 17 64 70 179 90
196 8 6 14 16 14 22 0 31 130 205 228 305 23 24 42 46 42 50 1 13 65 50 78 46
8 -2 18 -4 23 -4z m-931 -209 c61 -55 64 -60 52 -82 -7 -13 -14 -38 -15 -55
-1 -23 -6 -30 -16 -26 -10 4 -13 1 -8 -11 4 -11 -1 -17 -16 -19 -12 -2 -22
-10 -22 -18 -1 -21 -56 -130 -66 -130 -5 0 -11 -11 -15 -25 -10 -41 -24 -17
-24 43 -1 47 -3 54 -13 41 -7 -8 -24 -24 -40 -33 -22 -15 -30 -16 -42 -6 -8 7
-15 21 -15 32 0 19 160 348 170 348 3 0 34 -27 70 -59z m75 -100 c3 -5 1 -12
-5 -16 -5 -3 -10 1 -10 9 0 18 6 21 15 7z m2493 -37 c18 -12 22 -25 22 -67 0
-74 -7 -90 -45 -109 l-33 -16 -6 38 c-8 50 -35 58 -75 21 -33 -31 -51 -85 -43
-126 3 -19 1 -26 -6 -21 -14 9 -95 -32 -87 -44 3 -5 1 -11 -5 -15 -5 -3 -10
-2 -10 4 0 6 -7 8 -16 4 -8 -3 -13 -12 -9 -20 4 -12 0 -14 -15 -10 -13 3 -18
1 -13 -6 4 -6 -2 -8 -15 -5 -15 4 -23 0 -27 -13 -4 -10 -13 -19 -21 -19 -8 0
-12 -4 -9 -10 3 -5 2 -10 -4 -10 -5 0 -18 -3 -28 -6 -14 -6 -13 -3 5 16 13 12
21 25 18 28 -9 9 -47 -41 -42 -55 4 -9 -3 -11 -27 -6 -31 5 -31 5 -12 -10 16
-13 17 -16 5 -17 -9 0 -21 5 -28 12 -9 9 -12 9 -12 0 0 -7 5 -12 12 -12 14 0
1 -14 -15 -16 -7 0 -20 -2 -30 -2 -10 -1 -15 -7 -11 -13 4 -6 -1 -9 -13 -7
-12 2 -30 -9 -46 -26 -15 -15 -33 -26 -40 -23 -8 3 -20 1 -28 -4 -11 -7 -10
-9 4 -9 11 0 15 -5 11 -11 -3 -6 -19 -9 -35 -5 -22 4 -27 2 -22 -10 4 -10 1
-15 -8 -14 -37 6 -49 -1 -49 -26 0 -20 3 -24 13 -16 14 11 73 46 132 76 47 25
109 67 113 78 2 5 8 6 13 2 5 -3 21 3 37 14 15 11 51 32 80 47 33 17 51 33 48
41 -3 8 0 11 8 8 8 -3 40 9 72 27 40 23 52 34 41 38 -13 5 -11 8 8 18 14 6 25
7 25 2 0 -5 -3 -9 -8 -9 -4 0 -6 -20 -4 -45 4 -42 2 -45 -32 -62 -20 -9 -36
-20 -36 -25 0 -4 -4 -8 -9 -8 -5 0 -64 -31 -131 -70 -67 -38 -125 -70 -129
-70 -4 0 -12 -5 -19 -12 -7 -7 -36 -26 -66 -43 -30 -16 -84 -47 -121 -67 -36
-21 -71 -38 -77 -38 -7 0 -9 15 -5 44 l6 45 -34 -15 c-63 -26 -65 -24 -65 76
0 59 4 93 13 100 24 21 106 69 422 250 176 101 352 202 390 225 79 48 91 51
123 29z m467 -344 c-25 -6 -27 -8 -12 -14 9 -5 24 -6 32 -2 8 3 15 1 15 -4 0
-6 -17 -10 -39 -10 -22 0 -44 -6 -51 -15 -10 -12 -10 -15 3 -15 11 0 13 -6 9
-22 -5 -22 -10 -28 -63 -88 -17 -19 -37 -47 -45 -62 -8 -15 -23 -32 -34 -38
-11 -6 -20 -17 -20 -24 0 -8 -15 -30 -32 -49 -18 -19 -55 -58 -81 -87 l-48
-53 37 6 c33 6 35 5 18 -8 -11 -8 -27 -15 -36 -15 -10 0 -27 -9 -37 -19 -10
-10 -29 -22 -42 -26 l-23 -8 23 -18 c25 -21 41 -24 41 -10 0 5 -9 13 -21 16
-11 4 -18 9 -16 11 2 3 15 0 29 -6 21 -10 39 -3 148 58 132 73 144 74 131 12
-6 -31 -19 -42 -171 -133 -91 -54 -183 -109 -205 -121 -22 -12 -59 -34 -83
-49 -23 -15 -60 -37 -82 -48 -22 -12 -40 -24 -40 -28 0 -5 -10 -13 -22 -20
-22 -11 -22 -11 5 -6 15 3 27 1 27 -5 0 -5 -4 -10 -10 -10 -5 0 -19 -9 -31
-21 -11 -11 -27 -18 -35 -15 -9 3 -12 1 -9 -4 3 -6 1 -10 -5 -10 -6 0 -8 -5
-4 -11 3 -6 9 -7 13 -2 10 14 61 44 181 106 63 33 134 73 158 88 24 16 45 29
48 29 2 0 4 -20 4 -44 0 -39 -4 -46 -37 -68 -69 -45 -123 -78 -127 -78 -9 0
-271 -161 -290 -178 -10 -9 -20 -16 -22 -14 -3 1 -12 -2 -22 -7 -15 -9 -15
-12 -2 -20 8 -6 11 -13 7 -17 -3 -4 -13 -2 -20 5 -11 9 -21 7 -43 -5 l-29 -16
29 7 c27 6 28 5 15 -12 -8 -10 -24 -26 -36 -36 -12 -10 -20 -24 -17 -31 3 -8
-3 -20 -14 -27 -10 -8 -27 -27 -37 -44 -10 -16 -30 -41 -44 -53 -18 -16 -22
-25 -13 -29 8 -3 0 -13 -20 -27 -18 -12 -37 -32 -43 -44 -5 -12 -15 -20 -21
-18 -7 3 -14 -4 -17 -15 -3 -11 -14 -19 -26 -19 -14 0 -21 -6 -21 -20 0 -11
-5 -20 -12 -20 -6 0 -3 -7 8 -16 18 -15 18 -15 -7 -10 -30 7 -43 -2 -29 -19 7
-9 6 -16 -5 -25 -10 -9 -15 -9 -15 -1 0 6 -7 11 -16 11 -13 0 -14 -3 -5 -13 8
-11 5 -17 -17 -28 -15 -8 -29 -17 -32 -20 -3 -3 -33 -21 -67 -39 -35 -18 -63
-37 -63 -41 0 -5 -4 -9 -9 -9 -4 0 -39 -17 -76 -37 -62 -35 -74 -47 -132 -135
-65 -99 -78 -114 -86 -101 -11 18 -18 1019 -8 1045 7 18 35 40 88 70 43 24
202 116 353 203 151 87 304 175 340 195 166 94 457 261 470 270 8 5 40 23 70
40 30 16 78 43 105 59 28 17 64 37 80 45 17 8 53 29 80 45 28 17 73 42 100 56
28 15 54 31 60 36 5 5 25 8 45 8 l35 -1 -30 -8z m13 -47 c-10 -2 -28 -2 -40 0
-13 2 -5 4 17 4 22 1 32 -1 23 -4z m-2461 -195 c17 -21 23 -79 15 -133 -7 -46
-10 -50 -34 -50 -25 -1 -68 -40 -68 -63 0 -12 -68 -48 -76 -39 -4 4 -18 -5
-31 -19 -20 -22 -23 -23 -25 -7 -1 10 -4 -7 -7 -37 l-6 -54 -70 -41 c-38 -23
-92 -54 -120 -69 -27 -16 -102 -59 -165 -96 -63 -37 -142 -82 -175 -99 -33
-18 -65 -37 -72 -43 -17 -14 -30 -3 -35 30 -3 25 1 31 37 47 22 11 69 38 105
61 36 22 88 52 115 65 28 13 52 25 55 27 8 6 -24 22 -45 22 -19 -1 -19 -1 -2
-11 17 -10 17 -12 -9 -25 -15 -8 -35 -12 -43 -9 -8 3 -12 3 -8 -1 4 -4 -5 -13
-19 -21 -34 -17 -37 -16 -30 3 5 14 4 15 -9 4 -8 -7 -15 -17 -15 -22 0 -5 -9
-19 -20 -31 -17 -17 -23 -19 -29 -8 -7 10 -10 9 -16 -9 -6 -19 -12 -21 -43
-17 -21 3 -29 3 -19 1 20 -6 23 -24 3 -24 -8 0 -17 -7 -20 -16 -4 -10 -16 -14
-38 -12 l-33 3 -3 86 c-2 72 0 88 15 101 15 13 303 181 473 276 25 14 52 31
60 37 8 7 40 25 70 41 30 16 57 32 60 36 3 4 53 35 110 68 104 59 148 72 167
48z m391 -561 c11 -22 12 -122 6 -522 -6 -450 -9 -495 -24 -495 -9 0 -44 9
-78 21 l-62 21 -80 -47 c-44 -26 -84 -44 -90 -40 -5 3 -10 0 -10 -7 0 -7 -35
-31 -78 -53 -42 -22 -79 -42 -82 -45 -3 -3 -30 -7 -60 -9 -30 -2 -58 -8 -62
-15 -4 -6 -8 1 -8 17 l0 27 -125 0 c-101 0 -126 3 -133 15 -7 14 -12 14 -35 2
-15 -8 -24 -17 -20 -21 8 -8 -15 -26 -32 -26 -5 0 -3 5 5 10 11 7 11 10 2 10
-15 0 -54 -19 -62 -30 -3 -5 -34 -23 -70 -41 -36 -18 -89 -47 -118 -66 -29
-18 -54 -33 -57 -33 -2 0 -31 -16 -64 -35 -32 -19 -64 -35 -70 -35 -6 0 -11
19 -11 44 0 33 4 45 18 50 9 3 26 11 37 18 80 52 161 101 195 118 33 17 38 23
28 34 -24 23 -40 22 -88 -3 -117 -63 -340 -188 -390 -218 -49 -29 -55 -31 -61
-15 -4 9 -4 31 -2 47 4 25 15 36 66 64 34 18 85 49 114 67 28 19 55 34 59 34
4 0 15 7 24 15 8 8 40 27 70 43 30 16 55 33 57 39 2 5 -8 15 -22 21 -39 18
-44 14 -11 -7 l28 -19 -106 -1 c-66 -1 -106 2 -106 9 0 6 -25 10 -57 10 -98 0
-260 22 -260 35 0 7 7 11 16 8 20 -4 48 13 37 24 -5 4 -11 2 -13 -4 -6 -15
-23 -17 -23 -3 0 6 12 16 28 23 15 6 29 14 32 17 3 3 39 25 80 50 41 24 118
69 170 100 52 31 149 88 215 127 66 38 174 101 240 140 66 39 163 95 216 126
53 30 115 67 137 81 23 14 43 26 45 26 4 0 141 78 177 101 14 9 108 64 210
123 203 117 233 126 258 73z m1487 -27 c-3 -5 -10 -10 -16 -10 -5 0 -9 5 -9
10 0 6 7 10 16 10 8 0 12 -4 9 -10z m-44 -30 c-8 -4 -21 -5 -30 -2 -12 5 -10
8 9 12 29 8 40 3 21 -10z m-51 -10 c0 -5 -4 -10 -10 -10 -5 0 -10 5 -10 10 0
6 5 10 10 10 6 0 10 -4 10 -10z m-521 -716 c-6 -7 -15 -11 -20 -8 -5 3 -3 11
4 18 16 18 31 8 16 -10z m519 -121 c2 -60 7 -103 13 -103 5 0 22 8 37 17 l27
17 -19 -22 c-11 -12 -24 -22 -31 -22 -12 0 -46 -44 -93 -118 -14 -23 -31 -41
-36 -39 -5 2 -23 -11 -40 -28 -71 -71 -128 -84 -134 -32 -5 41 39 92 109 127
l59 30 0 107 c0 99 2 108 26 140 20 26 32 33 52 31 l27 -3 3 -102z m-2773
-193 c-3 -5 -11 -10 -16 -10 -6 0 -7 5 -4 10 3 6 11 10 16 10 6 0 7 -4 4 -10z
m-142 -7 c-13 -2 -33 -2 -45 0 -13 2 -3 4 22 4 25 0 35 -2 23 -4z m367 -40 c0
-3 -7 -3 -15 1 -8 3 -15 0 -15 -6 0 -6 -3 -9 -6 -5 -11 10 6 26 21 20 8 -3 15
-7 15 -10z m267 -29 c-3 -3 -12 -4 -19 -1 -8 3 -5 6 6 6 11 1 17 -2 13 -5z
m2183 -24 c0 -5 -2 -10 -4 -10 -3 0 -8 5 -11 10 -3 6 -1 10 4 10 6 0 11 -4 11
-10z m-2514 -1045 c9 -35 -1 -53 -31 -61 -18 -4 -32 -1 -45 11 -39 35 -19 75
37 75 26 0 34 -5 39 -25z m4798 9 c18 -46 -12 -82 -60 -70 -28 7 -42 49 -24
71 17 20 76 20 84 -1z m-3734 -174 l0 -170 -45 0 -45 0 0 170 0 170 45 0 45 0
0 -170z m960 1 l0 -169 -45 -4 c-32 -2 -45 1 -45 10 0 9 -7 8 -25 -4 -59 -39
-149 13 -161 93 -17 115 69 191 169 148 15 -6 17 -1 17 44 l0 51 45 0 45 0 0
-169z m946 149 c32 -12 53 -37 54 -62 0 -14 -8 -18 -38 -18 -21 0 -43 5 -49
11 -12 12 -33 4 -33 -12 0 -5 21 -30 46 -56 42 -42 48 -45 59 -30 8 11 26 17
54 17 22 0 41 -2 41 -5 0 -3 -9 -24 -21 -47 l-21 -40 33 -34 c18 -19 36 -31
39 -27 4 5 31 75 60 156 l53 148 50 -3 50 -3 53 -145 c29 -80 53 -151 54 -157
0 -9 -15 -13 -45 -13 -39 0 -45 3 -51 25 -6 23 -11 25 -65 25 -52 0 -59 -2
-59 -19 0 -11 -4 -22 -9 -25 -17 -11 -192 -9 -202 1 -8 8 -21 7 -45 -3 -64
-27 -160 -9 -183 34 -19 35 -13 88 13 119 20 24 23 36 19 73 -4 38 -1 48 19
67 35 32 79 40 124 23z m-3357 -16 c28 -17 71 -72 71 -92 0 -21 -84 -15 -105
8 -25 27 -78 26 -105 -2 -29 -31 -27 -88 5 -122 29 -31 53 -33 88 -6 25 20
117 30 117 13 0 -5 -9 -22 -20 -40 -54 -90 -207 -90 -273 -1 -48 65 -24 196
45 238 42 25 137 27 177 4z m3059 2 c67 -35 99 -106 81 -185 -6 -25 -20 -56
-31 -68 l-21 -23 31 -39 c18 -22 32 -42 32 -45 0 -3 -22 -6 -49 -6 -40 0 -53
5 -68 23 -13 17 -33 26 -67 30 -28 4 -60 14 -73 22 -13 9 -28 13 -34 10 -5 -4
-8 -3 -7 2 1 4 -8 30 -21 56 -39 80 -13 176 58 221 33 20 132 21 169 2z
m-2864 -58 c-7 -11 -5 -11 55 8 16 5 19 0 22 -40 4 -41 2 -46 -17 -46 -41 0
-53 -21 -55 -97 l-2 -73 -44 0 -43 0 0 130 0 130 46 0 c32 0 43 -3 38 -12z
m194 -120 l3 -128 -46 0 -45 0 0 131 0 130 43 -3 42 -3 3 -127z m233 109 c40
-27 59 -60 59 -104 l0 -33 -85 0 c-85 0 -104 -9 -64 -30 16 -9 24 -8 38 4 22
20 101 22 101 2 0 -26 -41 -66 -80 -77 -56 -17 -103 -5 -139 37 -55 62 -38
173 31 207 47 23 99 21 139 -6z m342 12 c21 -9 57 -56 57 -73 0 -10 -88 -7
-95 4 -8 14 -48 13 -43 -1 2 -6 28 -19 58 -29 57 -19 80 -41 80 -75 0 -82
-146 -114 -205 -43 -14 16 -25 36 -25 44 0 19 74 19 90 -1 15 -18 53 -20 48
-2 -3 6 -25 19 -50 27 -25 8 -53 21 -62 29 -16 14 -21 56 -10 86 14 37 107 57
157 34z m240 0 c16 -9 22 -9 25 0 2 6 24 11 48 11 l44 0 0 -130 0 -130 -45 0
c-25 0 -45 4 -45 10 0 5 -13 2 -28 -7 -36 -21 -91 -11 -122 22 -26 28 -52 115
-39 130 5 5 9 17 9 26 0 9 16 31 35 48 38 33 79 40 118 20z m445 -5 c20 -14
22 -14 22 1 0 13 9 16 43 13 l42 -3 2 -127 2 -128 -45 0 c-24 0 -44 4 -44 9 0
6 -12 3 -27 -5 -16 -7 -39 -14 -53 -14 -31 0 -79 31 -96 62 -18 32 -17 113 1
148 28 54 106 77 153 44z m312 1 c28 -15 50 -42 50 -64 0 -14 -77 -14 -85 -1
-8 13 -45 13 -45 0 0 -12 48 -32 64 -27 5 2 23 -8 38 -21 37 -33 38 -79 2
-113 -54 -51 -194 -17 -194 47 0 21 4 24 39 24 25 0 41 -5 45 -15 6 -18 60
-21 54 -3 -2 6 -28 19 -57 29 -55 18 -67 28 -77 67 -7 27 18 69 49 82 34 14
85 11 117 -5z m674 -2 c39 -18 66 -64 66 -112 l0 -31 -86 0 c-86 0 -102 -9
-61 -34 12 -8 21 -6 35 7 23 21 102 24 102 3 0 -47 -82 -93 -148 -81 -68 12
-102 55 -102 131 0 106 96 164 194 117z m1484 1 c20 -14 22 -14 22 1 0 13 9
16 43 13 l42 -3 3 -127 3 -128 -51 0 c-29 0 -49 4 -45 9 3 5 -9 3 -26 -6 -38
-19 -98 -11 -120 16 -9 11 -18 18 -21 16 -10 -10 -17 136 -8 165 8 23 72 60
105 60 17 0 41 -7 53 -16z m335 2 c87 -36 102 -173 25 -228 -22 -15 -48 -22
-87 -24 -53 -1 -58 1 -93 37 -34 34 -38 43 -38 91 0 60 16 90 64 119 37 22 84
24 129 5z m459 -68 l25 -83 24 80 25 80 47 3 c26 2 47 -1 47 -5 0 -4 -20 -62
-44 -128 l-44 -120 -56 -3 c-31 -2 -56 -1 -56 1 0 3 -20 61 -45 131 l-45 126
49 0 48 0 25 -82z m276 -50 l3 -128 -46 0 -45 0 0 131 0 130 43 -3 42 -3 3
-127z m135 62 c10 -36 22 -68 26 -73 4 -4 18 26 31 68 l24 75 43 0 c24 0 43
-4 43 -10 0 -5 -19 -64 -41 -130 l-42 -121 -55 3 -55 3 -44 120 c-24 65 -43
123 -43 128 0 4 21 7 47 5 l47 -3 19 -65z m372 56 c50 -21 77 -69 72 -129 -5
-62 -33 -98 -86 -116 -88 -28 -169 18 -178 101 -8 72 11 116 61 139 50 22 85
24 131 5z m-935 -91 l0 -35 -105 0 -105 0 0 35 0 35 105 0 105 0 0 -35z
m-3890 -650 l0 -115 -53 0 c-67 0 -90 21 -90 80 0 52 25 80 70 80 31 0 33 2
33 35 0 28 4 35 20 35 19 0 20 -7 20 -115z m550 1 l0 -113 -54 -2 c-46 -1 -57
3 -70 21 -20 29 -20 87 0 116 11 15 25 22 50 22 32 0 34 2 34 35 0 28 4 35 20
35 19 0 20 -7 20 -114z m566 0 l0 -114 -58 -1 c-48 0 -60 3 -73 21 -19 29 -19
87 1 116 11 16 25 22 55 22 38 0 39 1 39 35 0 27 4 35 19 35 17 0 18 -9 17
-114z m1294 -1 l0 -115 -54 0 c-36 0 -60 5 -70 15 -24 25 -30 78 -12 114 14
27 22 31 56 31 39 0 40 1 40 35 0 28 4 35 20 35 19 0 20 -7 20 -115z m70 89
c0 -8 -9 -14 -20 -14 -22 0 -28 26 -7 33 16 6 27 -1 27 -19z m2720 -89 c0
-108 -1 -115 -20 -115 -19 0 -20 7 -20 115 0 108 1 115 20 115 19 0 20 -7 20
-115z m-6150 90 c0 -10 -11 -15 -35 -15 l-35 0 0 -95 c0 -88 -1 -95 -20 -95
-19 0 -20 7 -20 95 l0 95 -35 0 c-24 0 -35 5 -35 15 0 12 17 15 90 15 73 0 90
-3 90 -15z m60 0 c0 -8 -9 -15 -20 -15 -11 0 -20 7 -20 15 0 8 9 15 20 15 11
0 20 -7 20 -15z m1025 -5 c-18 -20 -55 -28 -55 -12 0 16 24 32 49 32 23 0 24
-1 6 -20z m245 5 c0 -8 -9 -15 -20 -15 -11 0 -20 7 -20 15 0 8 9 15 20 15 11
0 20 -7 20 -15z m2234 -4 c16 -18 15 -19 -33 -19 -55 0 -60 4 -33 24 24 19 46
17 66 -5z m416 4 c0 -8 -9 -15 -20 -15 -11 0 -20 7 -20 15 0 8 9 15 20 15 11
0 20 -7 20 -15z m820 -25 c0 -11 7 -20 15 -20 8 0 15 -4 15 -10 0 -5 -7 -10
-15 -10 -12 0 -15 -13 -15 -55 0 -42 3 -55 15 -55 8 0 15 -7 15 -16 0 -11 -8
-14 -32 -12 l-33 3 -3 68 c-2 51 -6 67 -17 67 -8 0 -15 5 -15 10 0 6 7 10 15
10 8 0 15 9 15 20 0 13 7 20 20 20 13 0 20 -7 20 -20z m-3532 -49 c-5 -14 -19
-50 -30 -78 -29 -78 -48 -72 -80 27 -24 73 -25 80 -8 80 12 0 23 -16 37 -51
l19 -50 17 54 c14 46 21 54 37 50 16 -4 17 -9 8 -32z m3298 27 c73 2 76 -2 79
-100 2 -50 0 -58 -17 -58 -15 0 -18 8 -18 53 0 60 -10 80 -36 75 -16 -3 -20
-14 -22 -66 -3 -53 -6 -62 -22 -62 -16 0 -19 9 -22 63 -3 59 -4 62 -28 62 -24
0 -25 -3 -28 -62 -3 -55 -6 -63 -22 -63 -18 0 -20 7 -20 79 l0 80 38 3 c20 2
41 1 46 -1 6 -3 38 -4 72 -3z m1214 -13 c0 -8 -10 -15 -22 -17 -21 -3 -23 -9
-26 -65 -3 -55 -6 -63 -22 -63 -18 0 -20 7 -20 79 0 49 4 81 11 83 23 8 79 -5
79 -17z m-5720 -65 c0 -73 -2 -80 -20 -80 -18 0 -20 7 -20 80 0 73 2 80 20 80
18 0 20 -7 20 -80z m120 66 c0 -8 -10 -16 -22 -18 -21 -3 -23 -9 -26 -65 -3
-55 -6 -63 -22 -63 -18 0 -20 7 -20 80 l0 80 45 0 c32 0 45 -4 45 -14z m122
-3 c10 -9 18 -30 18 -50 0 -33 0 -33 -50 -33 -40 0 -48 -3 -44 -15 7 -18 45
-20 62 -3 9 9 15 9 24 0 19 -19 -9 -42 -53 -42 -52 0 -79 27 -79 80 0 50 27
80 72 80 17 0 40 -7 50 -17z m236 5 c7 -7 12 -40 12 -79 l0 -66 -47 -2 c-71
-1 -83 5 -83 43 0 41 15 56 57 56 23 0 33 5 33 15 0 9 -9 15 -25 15 -14 0 -25
-4 -25 -10 0 -5 -9 -10 -20 -10 -11 0 -20 6 -20 13 0 24 23 37 65 37 23 0 46
-5 53 -12z m156 6 c20 -8 21 -40 1 -48 -8 -3 -18 2 -23 10 -9 17 -43 16 -43
-1 1 -5 13 -14 29 -19 39 -12 52 -25 52 -50 0 -33 -19 -46 -65 -46 -44 0 -65
13 -65 42 0 22 28 24 36 3 7 -17 49 -20 59 -5 3 5 -7 15 -22 21 -46 18 -56 25
-67 42 -23 37 52 72 108 51z m328 -56 c3 -60 4 -63 28 -63 24 0 25 3 28 63 3
53 6 63 20 60 14 -3 18 -17 20 -81 l3 -77 -60 0 c-73 0 -81 10 -81 99 0 54 2
61 20 61 16 0 19 -8 22 -62z m308 -18 c0 -73 -2 -80 -20 -80 -18 0 -20 7 -20
80 0 73 2 80 20 80 18 0 20 -7 20 -80z m320 70 c10 -6 16 -32 18 -79 l4 -71
-59 0 c-63 0 -83 11 -83 46 0 32 26 54 66 54 19 0 34 5 34 10 0 17 -31 24 -51
12 -22 -14 -49 -16 -49 -3 0 34 82 55 120 31z m165 -12 c19 -28 4 -36 -30 -18
-25 13 -65 6 -49 -9 5 -5 26 -14 46 -20 44 -15 58 -44 32 -72 -32 -36 -124
-16 -124 28 0 18 36 17 44 -2 3 -8 13 -14 23 -12 31 4 29 22 -2 32 -45 15 -55
24 -55 49 0 32 19 46 61 46 28 0 42 -6 54 -22z m399 6 c11 -11 16 -35 16 -80
l0 -64 -60 0 c-48 0 -61 4 -70 19 -24 45 1 81 56 81 19 0 34 5 34 10 0 17 -31
24 -51 12 -25 -16 -39 -15 -39 1 0 37 83 52 114 21z m234 4 c18 -18 14 -38 -8
-38 -11 0 -20 5 -20 11 0 6 -10 9 -22 7 -33 -4 -24 -21 21 -36 74 -25 55 -92
-27 -92 -40 0 -62 17 -62 49 0 17 28 13 38 -5 5 -9 18 -14 33 -12 33 4 30 21
-7 33 -61 20 -79 49 -48 79 18 19 85 21 102 4z m72 -42 c0 -56 17 -83 45 -72
11 4 15 21 15 66 0 53 2 60 20 60 18 0 20 -7 20 -80 l0 -80 -53 0 c-29 0 -58
5 -65 12 -7 7 -12 40 -12 80 0 54 3 68 15 68 11 0 15 -13 15 -54z m250 44 c9
-6 16 -32 18 -78 l4 -70 -58 -1 c-64 0 -84 10 -84 45 0 32 26 54 66 54 19 0
34 5 34 10 0 17 -31 24 -51 12 -22 -14 -49 -16 -49 -3 0 34 82 55 120 31z
m238 -2 c6 -7 12 -43 14 -80 l3 -66 -54 -1 c-63 0 -81 10 -81 48 0 36 17 51
57 51 23 0 33 5 33 15 0 9 -9 15 -25 15 -14 0 -25 -4 -25 -10 0 -5 -9 -10 -20
-10 -22 0 -26 20 -8 38 16 16 93 15 106 0z m84 -50 c3 -60 4 -63 28 -63 24 0
25 3 28 63 3 54 6 62 22 62 18 0 20 -7 20 -80 l0 -80 -60 0 c-56 0 -61 2 -70
26 -6 14 -10 50 -10 80 0 47 3 54 20 54 16 0 19 -8 22 -62z m338 -18 c0 -73
-2 -80 -20 -80 -18 0 -20 7 -20 80 0 73 2 80 20 80 18 0 20 -7 20 -80z m154
58 c9 -12 16 -35 16 -50 0 -27 -2 -28 -51 -28 -36 0 -49 -4 -47 -12 6 -17 46
-22 62 -9 10 8 17 7 25 -3 16 -19 -14 -36 -62 -36 -45 0 -72 30 -72 80 0 52
27 80 76 80 28 0 42 -6 53 -22z m159 0 c8 -13 15 -49 15 -80 1 -51 -1 -58 -18
-58 -16 0 -19 9 -22 63 -3 59 -4 62 -28 62 -24 0 -25 -3 -28 -62 -3 -55 -6
-63 -22 -63 -18 0 -20 7 -20 80 l0 80 55 0 c46 0 57 -4 68 -22z m158 12 c22
-12 26 -50 5 -50 -7 0 -19 7 -26 15 -31 38 -67 3 -58 -56 4 -29 46 -39 60 -15
10 18 38 22 38 5 0 -32 -22 -49 -65 -49 -52 0 -75 24 -75 80 0 52 23 80 66 80
20 0 44 -5 55 -10z m79 -70 c0 -73 -2 -80 -20 -80 -18 0 -20 7 -20 80 0 73 2
80 20 80 18 0 20 -7 20 -80z m154 64 c11 -11 16 -35 16 -80 l0 -64 -60 0 c-48
0 -61 4 -70 19 -24 45 1 81 56 81 19 0 34 5 34 10 0 17 -31 24 -51 12 -25 -16
-39 -15 -39 1 0 37 83 52 114 21z m240 -6 c9 -12 16 -35 16 -50 0 -27 -2 -28
-51 -28 -36 0 -49 -4 -47 -12 6 -17 46 -22 61 -9 8 6 18 6 27 1 26 -16 -8 -40
-56 -40 -51 0 -74 25 -74 80 0 53 23 80 70 80 29 0 43 -6 54 -22z m588 5 c10
-9 18 -30 18 -50 l0 -33 -51 0 c-36 0 -49 -4 -47 -12 6 -18 46 -22 64 -7 11 9
18 9 26 1 19 -19 -10 -42 -53 -42 -52 0 -79 27 -79 80 0 50 27 80 72 80 17 0
40 -7 50 -17z m265 5 c8 -7 13 -36 13 -79 0 -62 -2 -69 -20 -69 -16 0 -19 8
-22 62 -2 52 -6 63 -22 66 -26 5 -36 -15 -36 -75 0 -46 -3 -53 -20 -53 -16 0
-19 8 -22 62 -2 52 -6 63 -22 66 -26 5 -33 -10 -31 -73 2 -47 0 -55 -16 -55
-17 0 -19 9 -19 79 l0 78 102 1 c58 0 108 -4 115 -10z m167 -4 c21 -20 21 -93
0 -122 -11 -15 -25 -22 -50 -22 -31 0 -34 -2 -34 -30 0 -23 -4 -30 -20 -30
-19 0 -20 7 -20 110 l0 110 54 0 c36 0 60 -5 70 -16z m168 -1 c10 -9 18 -23
18 -32 0 -13 10 -15 51 -12 40 2 50 0 47 -10 -3 -9 -21 -14 -51 -13 -40 0 -47
-3 -47 -20 0 -34 -29 -56 -76 -56 -33 0 -46 5 -58 22 -23 32 -20 94 4 118 25
25 86 27 112 3z m341 4 c10 -6 20 -29 24 -50 l6 -37 -39 -1 c-22 -1 -48 0 -59
1 -16 2 -17 0 -6 -14 15 -18 56 -21 67 -5 4 7 9 8 17 0 18 -18 -12 -41 -54
-41 -21 0 -41 5 -44 10 -4 6 -10 8 -14 6 -9 -6 -12 11 -14 66 -1 47 25 78 68
78 17 0 39 -6 48 -13z m165 1 c7 -7 12 -40 12 -79 l0 -66 -47 -2 c-71 -1 -83
5 -83 43 0 41 15 56 57 56 23 0 33 5 33 15 0 9 -9 15 -25 15 -14 0 -25 -4 -25
-10 0 -5 -9 -10 -20 -10 -11 0 -20 6 -20 13 0 24 23 37 65 37 23 0 46 -5 53
-12z"/>
<path d="M3620 5199 c0 -11 5 -17 10 -14 6 3 10 13 10 21 0 8 -4 14 -10 14 -5
0 -10 -9 -10 -21z"/>
<path d="M4465 4924 c-20 -20 -19 -24 6 -24 11 0 18 4 14 9 -3 5 3 11 12 13
17 3 17 4 1 10 -10 4 -24 1 -33 -8z"/>
<path d="M4110 4580 c-9 -6 -10 -10 -3 -10 6 0 15 5 18 10 8 12 4 12 -15 0z"/>
<path d="M4080 4530 c0 -5 5 -10 11 -10 5 0 7 5 4 10 -3 6 -8 10 -11 10 -2 0
-4 -4 -4 -10z"/>
<path d="M3405 4496 c-65 -28 -123 -155 -110 -238 8 -45 26 -61 67 -61 64 0
138 121 138 225 0 28 -7 46 -25 63 -28 29 -29 29 -70 11z"/>
<path d="M2154 4939 c-74 -45 -91 -57 -59 -44 11 5 33 8 48 7 18 -1 25 3 21
10 -4 6 -3 8 4 5 11 -7 72 23 72 36 0 12 -17 8 -30 -8 -7 -8 -20 -15 -29 -15
-9 0 2 12 24 25 22 14 35 25 29 25 -5 0 -41 -19 -80 -41z"/>
<path d="M2115 4890 c-3 -5 -22 -10 -41 -10 -25 0 -34 -4 -34 -16 0 -12 -6
-15 -21 -11 -17 5 -20 2 -16 -14 3 -10 1 -19 -4 -19 -5 0 -9 5 -9 10 0 7 -7 7
-21 0 -11 -7 -27 -9 -35 -6 -8 3 -12 2 -9 -3 3 -6 -3 -14 -12 -20 -16 -9 -16
-12 -3 -21 20 -13 23 -13 46 5 15 11 16 14 4 15 -9 0 -21 -5 -28 -12 -7 -7
-12 -8 -12 -2 0 11 42 34 61 34 6 0 7 -4 4 -10 -10 -16 1 -12 47 18 24 16 58
35 76 43 17 8 32 17 32 21 0 11 -18 10 -25 -2z"/>
<path d="M1596 3693 c-6 -14 -5 -15 5 -6 7 7 10 15 7 18 -3 3 -9 -2 -12 -12z"/>
<path d="M1727 3634 c-16 -9 -27 -17 -25 -18 53 -35 56 -36 75 -18 10 9 14 14
9 10 -6 -5 -17 -8 -25 -8 -13 1 -12 4 3 15 18 14 18 15 2 15 -9 0 -14 5 -11
10 8 13 6 12 -28 -6z m23 -14 c0 -5 -4 -10 -10 -10 -5 0 -10 5 -10 10 0 6 5
10 10 10 6 0 10 -4 10 -10z"/>
<path d="M1820 3640 l-25 -8 28 -1 c15 -1 27 4 27 9 0 6 -1 10 -2 9 -2 -1 -14
-5 -28 -9z"/>
<path d="M3490 2301 c-32 -62 22 -115 74 -72 35 29 11 91 -34 91 -19 0 -33 -7
-40 -19z"/>
<path d="M4931 2315 c-6 -16 -14 -36 -16 -42 -3 -9 6 -13 25 -13 33 0 34 1 15
50 l-13 35 -11 -30z"/>
<path d="M4514 2248 c-10 -34 32 -59 66 -38 12 7 11 13 -10 34 -29 32 -46 33
-56 4z"/>
<path d="M4211 2379 c-34 -14 -50 -39 -50 -79 -1 -75 71 -113 125 -67 24 21
29 32 28 67 -2 63 -50 100 -103 79z"/>
<path d="M1782 2318 c-21 -21 -13 -28 28 -28 22 0 40 4 40 8 0 14 -23 32 -40
32 -9 0 -21 -5 -28 -12z"/>
<path d="M2400 2301 c-15 -29 -12 -56 8 -74 24 -22 45 -21 65 1 34 37 13 92
-33 92 -19 0 -33 -7 -40 -19z"/>
<path d="M2842 2308 c-7 -7 -12 -27 -12 -45 0 -26 6 -36 24 -45 31 -14 53 -5
68 26 22 49 -43 101 -80 64z"/>
<path d="M3802 2318 c-21 -21 -13 -28 28 -28 44 0 49 6 23 26 -22 17 -36 17
-51 2z"/>
<path d="M5310 2301 c-18 -35 -12 -70 14 -83 32 -14 54 -5 66 28 21 54 -53
105 -80 55z"/>
<path d="M5621 2306 c-17 -20 -10 -77 12 -90 35 -22 77 26 61 71 -11 32 -53
43 -73 19z"/>
<path d="M6860 2301 c-14 -26 -13 -64 2 -79 15 -15 55 -16 64 0 12 19 13 61 3
80 -13 24 -56 23 -69 -1z"/>
<path d="M2028 1636 c-16 -37 3 -79 35 -74 19 3 22 9 22 48 0 39 -3 45 -22 48
-16 2 -26 -4 -35 -22z"/>
<path d="M2584 1646 c-3 -8 -4 -29 -2 -48 2 -28 7 -33 28 -33 23 0 25 4 28 48
3 45 2 47 -23 47 -14 0 -28 -6 -31 -14z"/>
<path d="M3147 1653 c-4 -3 -7 -24 -7 -45 0 -42 20 -59 49 -41 34 22 25 93
-13 93 -12 0 -26 -3 -29 -7z"/>
<path d="M4442 1648 c-15 -15 -16 -60 0 -76 32 -32 65 2 56 59 -3 27 -36 37
-56 17z"/>
<path d="M1406 1644 c-9 -24 -9 -24 29 -24 33 0 35 2 25 20 -13 24 -45 26 -54
4z"/>
<path d="M1644 1596 c-14 -11 -16 -18 -8 -26 18 -18 49 -7 52 18 4 26 -15 29
-44 8z"/>
<path d="M2763 1603 c-7 -2 -13 -14 -13 -24 0 -31 54 -22 58 9 3 22 -14 28
-45 15z"/>
<path d="M3324 1596 c-14 -11 -16 -18 -8 -26 18 -18 49 -7 52 18 4 26 -15 29
-44 8z"/>
<path d="M3883 1603 c-7 -2 -13 -13 -13 -24 0 -24 45 -27 54 -3 13 33 -3 43
-41 27z"/>
<path d="M4121 1601 c-19 -12 -6 -43 16 -39 21 4 31 48 11 48 -7 0 -19 -4 -27
-9z"/>
<path d="M4680 1641 c-10 -19 -8 -21 25 -21 29 0 36 3 33 18 -5 25 -44 27 -58
3z"/>
<path d="M5244 1596 c-14 -11 -16 -18 -8 -26 17 -17 54 -2 54 21 0 23 -19 25
-46 5z"/>
<path d="M5477 1654 c-17 -17 -5 -34 24 -34 24 0 30 4 27 18 -3 17 -38 29 -51
16z"/>
<path d="M6067 1646 c-8 -19 1 -26 35 -26 26 0 28 2 18 20 -12 23 -45 27 -53
6z"/>
<path d="M6494 1646 c-3 -8 -4 -29 -2 -48 2 -25 8 -34 25 -36 39 -6 53 67 19
90 -17 12 -36 9 -42 -6z"/>
<path d="M6654 1635 c-11 -43 3 -75 31 -75 32 0 49 38 35 75 -7 17 -17 25 -35
25 -18 0 -26 -7 -31 -25z"/>
<path d="M7010 1640 c-10 -18 -8 -20 26 -20 29 0 35 3 30 16 -3 9 -6 18 -6 20
0 14 -41 1 -50 -16z"/>
<path d="M7174 1596 c-14 -11 -16 -18 -8 -26 18 -18 49 -7 52 18 4 26 -15 29
-44 8z"/>
<path d="M14515 7032 c-57 -20 -75 -49 -75 -126 0 -53 1 -56 25 -56 24 0 25 3
25 58 0 32 5 63 12 70 18 18 807 17 831 0 13 -11 17 -38 21 -158 3 -81 11
-165 18 -190 14 -43 15 -39 21 130 7 173 3 220 -15 220 -5 0 -7 4 -3 10 3 5
-7 17 -22 27 -25 16 -61 18 -423 20 -217 1 -404 -2 -415 -5z"/>
<path d="M13450 6680 l0 -130 28 0 27 0 0 130 0 130 -27 0 -28 0 0 -130z"/>
<path d="M15005 6798 c-4 -14 -25 -116 -25 -124 0 -3 5 -2 11 2 6 3 3 -5 -6
-20 -10 -14 -14 -26 -11 -26 4 0 2 -9 -4 -20 -8 -16 -8 -20 2 -18 7 2 12 -3
10 -10 -1 -8 2 -11 8 -7 8 5 7 12 -2 23 -10 12 -10 14 -1 8 8 -4 22 4 37 21
26 30 15 52 -14 30 -13 -10 -13 -10 -2 5 8 9 10 23 6 29 -4 8 -3 9 4 5 7 -4
12 -1 13 6 0 7 2 20 4 28 18 79 18 80 -4 80 -12 0 -23 -6 -26 -12z m-5 -168
c0 -5 -2 -10 -4 -10 -3 0 -8 5 -11 10 -3 6 -1 10 4 10 6 0 11 -4 11 -10z"/>
<path d="M13760 6755 c0 -16 -6 -25 -15 -25 -8 0 -15 -9 -15 -20 0 -11 7 -20
15 -20 11 0 15 -12 15 -46 0 -74 33 -111 90 -99 21 5 27 11 23 26 -3 12 -14
19 -29 19 -22 0 -24 4 -24 50 0 43 3 50 20 50 13 0 20 7 20 20 0 13 -7 20 -20
20 -15 0 -20 7 -20 25 0 21 -5 25 -30 25 -25 0 -30 -4 -30 -25z"/>
<path d="M13581 6726 c-76 -42 -62 -148 24 -176 45 -15 108 3 103 28 -3 13
-13 16 -46 14 -41 -3 -72 10 -72 29 0 5 32 9 70 9 69 0 70 1 70 26 0 38 -50
84 -92 84 -18 -1 -44 -7 -57 -14z m85 -43 c17 -17 16 -18 -25 -21 -50 -4 -59
1 -41 23 17 20 44 19 66 -2z"/>
<path d="M13900 6645 c0 -95 0 -95 25 -95 24 0 25 3 25 59 0 64 13 85 52 79
21 -3 23 -9 26 -70 3 -68 3 -68 32 -68 29 0 29 0 32 68 3 63 5 67 27 70 35 5
51 -22 51 -85 0 -50 1 -53 25 -53 24 0 25 2 25 69 0 54 -4 74 -21 95 -23 30
-71 35 -105 12 -17 -12 -22 -12 -39 0 -22 17 -59 18 -86 4 -13 -7 -19 -7 -19
0 0 5 -11 10 -25 10 -25 0 -25 0 -25 -95z"/>
<path d="M14279 6711 c-33 -34 -40 -91 -14 -128 18 -26 78 -45 114 -36 67 15
59 55 -9 46 -40 -6 -75 10 -64 28 3 5 36 9 75 9 38 0 69 4 69 9 0 29 -26 74
-51 86 -45 24 -87 19 -120 -14z m101 -26 c18 -22 9 -27 -41 -23 -41 3 -42 4
-25 21 22 21 49 22 66 2z"/>
<path d="M14614 6730 c-33 -13 -64 -59 -64 -95 0 -45 31 -82 70 -83 17 0 28 3
25 8 -3 4 5 6 17 2 14 -3 19 -1 14 6 -3 6 -1 14 5 18 8 4 9 3 5 -4 -4 -7 -2
-12 4 -12 6 0 9 -4 6 -8 -2 -4 5 -9 17 -9 17 -2 19 0 7 7 -13 8 -12 10 4 10
14 0 17 6 14 25 -3 14 -2 25 2 25 4 0 11 17 14 38 4 20 9 45 12 55 4 13 -1 17
-20 17 -14 0 -26 -4 -26 -9 0 -6 -12 -3 -27 5 -31 16 -48 17 -79 4z m74 -42
c7 -7 12 -29 12 -49 0 -40 -15 -51 -71 -53 -23 -1 -26 3 -28 41 -1 33 3 44 21
57 27 19 50 20 66 4z"/>
<path d="M14830 6722 c-45 -22 -53 -62 -16 -81 13 -8 32 -11 41 -7 9 3 13 2
10 -4 -3 -6 1 -10 9 -10 9 0 16 -4 16 -10 0 -5 7 -6 17 -3 12 5 14 3 8 -7 -5
-8 -4 -11 3 -7 18 12 6 42 -16 41 -11 0 -20 4 -19 10 1 5 -5 11 -13 12 -8 0
-20 2 -27 2 -6 1 -9 11 -6 23 5 17 12 20 52 18 35 -3 47 0 49 13 2 9 -6 18
-20 22 -36 9 -50 7 -88 -12z"/>
<path d="M15086 6698 c-15 -18 -25 -27 -20 -19 5 10 3 12 -5 7 -7 -4 -10 -13
-8 -19 2 -7 -1 -19 -9 -27 -11 -13 -8 -15 17 -16 16 -1 29 3 29 8 0 5 -4 6
-10 3 -17 -11 -11 12 11 36 11 13 17 18 13 10 -5 -10 -3 -12 5 -6 7 4 11 15 8
25 -4 14 0 17 14 15 11 -2 17 0 14 6 -11 17 -31 9 -59 -23z"/>
<path d="M15089 6603 c-13 -16 -12 -17 4 -4 16 13 21 21 13 21 -2 0 -10 -8
-17 -17z"/>
<path d="M14790 6579 c0 -5 -5 -7 -12 -3 -7 4 -8 3 -4 -4 4 -6 13 -9 21 -5 17
6 20 23 5 23 -5 0 -10 -5 -10 -11z"/>
<path d="M14887 6579 c7 -7 15 -10 18 -7 3 3 -2 9 -12 12 -14 6 -15 5 -6 -5z"/>
<path d="M14838 6563 c7 -3 16 -2 19 1 4 3 -2 6 -13 5 -11 0 -14 -3 -6 -6z"/>
<path d="M14440 6401 c0 -35 37 -84 57 -77 8 3 11 1 8 -5 -8 -12 453 -8 473 5
11 7 16 1 13 -17 -1 -5 3 -6 8 -2 6 3 23 -2 38 -11 24 -14 25 -14 9 0 -11 9
-16 16 -11 16 4 0 0 9 -10 20 -13 15 -22 17 -36 10 -10 -6 -33 -10 -51 -9 -31
1 -31 1 -8 9 14 5 -60 8 -176 9 -111 1 -216 4 -233 7 -27 6 -31 10 -31 40 0
30 -3 34 -25 34 -21 0 -25 -5 -25 -29z m580 -76 c11 -13 10 -14 -4 -9 -9 3
-16 10 -16 15 0 13 6 11 20 -6z"/>
<path d="M15170 6359 c0 -5 5 -7 10 -4 6 3 10 8 10 11 0 2 -4 4 -10 4 -5 0
-10 -5 -10 -11z"/>
<path d="M15079 6243 c-13 -16 -12 -17 4 -4 9 7 17 15 17 17 0 8 -8 3 -21 -13z"/>
<path d="M15126 6198 c3 -5 10 -6 15 -3 13 9 11 12 -6 12 -8 0 -12 -4 -9 -9z"/>
<path d="M12500 5301 c-14 -4 -35 -22 -47 -40 -22 -33 -23 -42 -23 -260 0
-208 2 -229 20 -259 11 -18 32 -37 46 -42 16 -6 719 -10 1937 -10 1893 0 1912
0 1945 20 18 11 37 32 43 47 6 16 9 117 7 260 l-3 233 -28 27 -27 28 -1923 2
c-1057 0 -1933 -2 -1947 -6z m720 -166 c36 -18 37 -29 8 -49 -15 -11 -34 -13
-64 -9 -37 5 -46 2 -68 -20 -74 -74 26 -184 105 -117 l24 19 -37 1 c-37 0 -38
1 -38 35 l0 35 76 0 77 0 -5 -51 c-4 -42 -12 -57 -41 -87 -32 -31 -43 -36 -94
-39 -68 -5 -111 16 -143 69 -45 74 -7 193 70 221 30 11 102 7 130 -8z m428
-63 c2 -7 -6 -12 -17 -12 -21 0 -27 11 -14 24 9 9 26 2 31 -12z m792 -67 c0
-58 -3 -75 -14 -75 -11 0 -15 18 -18 75 -3 66 -1 75 15 75 15 0 17 -10 17 -75z
m1290 0 c0 -60 -3 -75 -15 -75 -12 0 -15 15 -15 75 0 60 3 75 15 75 12 0 15
-15 15 -75z m-2212 53 c30 -30 3 -51 -29 -23 -15 14 -18 14 -33 0 -9 -9 -16
-25 -16 -35 0 -10 7 -26 16 -35 15 -14 18 -14 33 0 21 18 41 20 41 2 0 -36
-74 -51 -104 -21 -21 20 -20 83 1 106 18 20 73 24 91 6z m1810 0 c30 -30 3
-51 -29 -23 -15 14 -18 14 -33 0 -20 -21 -20 -49 0 -70 13 -13 19 -13 32 -3
14 12 13 13 -1 16 -29 6 -18 22 14 22 28 0 30 -2 27 -32 -3 -31 -6 -33 -44
-36 -51 -4 -74 16 -74 64 0 55 15 74 58 74 21 0 43 -5 50 -12z m-1678 -73 c0
-48 -2 -55 -20 -55 -17 0 -20 7 -20 40 0 29 -4 40 -15 40 -11 0 -15 -11 -15
-40 0 -33 -3 -40 -20 -40 -18 0 -20 7 -20 55 l0 55 55 0 55 0 0 -55z m108 23
c3 -25 0 -28 -27 -28 -17 0 -31 -4 -31 -9 0 -17 20 -23 35 -11 10 8 15 8 20 0
12 -19 -10 -32 -46 -28 -41 4 -60 41 -41 83 10 22 17 26 50 23 32 -3 37 -7 40
-30z m150 10 c2 -11 -3 -18 -12 -18 -9 0 -16 5 -16 10 0 6 -4 10 -10 10 -19 0
-10 -17 16 -28 18 -9 24 -19 22 -35 -2 -18 -10 -23 -41 -25 -27 -2 -39 1 -43
13 -9 23 4 31 26 17 23 -14 30 -15 30 -4 0 4 -13 13 -30 19 -19 7 -30 18 -30
30 0 28 10 34 50 31 24 -2 36 -9 38 -20z m52 -24 c0 -59 24 -55 28 4 2 29 8
42 18 42 10 0 14 -14 14 -56 l0 -55 -42 3 c-42 3 -43 4 -48 44 -7 49 -3 64 16
64 10 0 14 -13 14 -46z m164 30 c3 -9 6 -33 6 -55 l0 -39 -44 0 c-36 0 -46 4
-51 20 -9 27 11 50 42 50 14 0 21 4 18 10 -3 6 -17 7 -31 4 -23 -6 -32 5 -17
19 13 14 71 7 77 -9z m153 1 c8 -23 -5 -31 -27 -17 -11 7 -20 8 -20 4 0 -5 12
-14 26 -20 18 -9 24 -19 22 -35 -2 -18 -10 -23 -41 -25 -27 -2 -39 1 -43 13
-9 23 4 31 26 17 23 -14 30 -15 30 -4 0 4 -13 13 -30 19 -28 11 -40 39 -23 56
13 14 74 7 80 -8z m107 -1 c3 -9 6 -33 6 -55 0 -39 0 -39 -39 -39 -47 0 -67
19 -51 49 6 13 21 21 36 21 14 0 23 4 20 9 -3 4 -17 6 -31 3 -24 -4 -33 7 -18
21 13 14 71 7 77 -9z m160 0 c3 -9 6 -33 6 -55 l0 -39 -44 0 c-36 0 -46 4 -51
20 -9 27 11 50 42 50 14 0 21 4 18 10 -3 6 -17 7 -31 4 -23 -6 -32 5 -17 19
13 14 71 7 77 -9z m160 0 c9 -23 -1 -30 -24 -17 -14 10 -21 9 -30 -2 -16 -19
6 -63 23 -46 16 16 37 14 37 -4 0 -16 -37 -29 -67 -23 -25 5 -39 51 -25 83 9
20 19 25 46 25 22 0 36 -6 40 -16z m104 4 c7 -7 12 -26 12 -43 0 -38 -16 -55
-50 -55 -34 0 -50 17 -50 55 0 38 16 55 50 55 14 0 31 -5 38 -12z m180 -45 c2
-42 0 -53 -12 -53 -10 0 -16 13 -18 43 -2 23 -7 42 -13 42 -5 0 -11 -19 -13
-42 -3 -34 -7 -43 -22 -43 -13 0 -17 5 -13 20 7 27 -5 72 -17 65 -6 -3 -10
-24 -10 -46 0 -32 -3 -39 -20 -39 -18 0 -20 7 -20 55 l0 56 78 -3 77 -3 3 -52z
m160 45 c17 -17 15 -73 -2 -87 -8 -7 -29 -11 -47 -9 -39 4 -56 39 -40 81 9 22
17 27 44 27 18 0 38 -5 45 -12z m300 0 c16 -16 15 -60 -1 -82 -9 -12 -23 -17
-47 -14 -27 2 -35 9 -43 31 -15 45 5 77 46 77 18 0 38 -5 45 -12z m110 0 c7
-7 12 -26 12 -43 0 -38 -16 -55 -50 -55 -34 0 -50 17 -50 55 0 38 16 55 50 55
14 0 31 -5 38 -12z m120 -60 l-3 -73 -40 0 c-33 0 -40 3 -41 20 0 11 -4 33 -8
48 -5 17 -4 38 3 53 9 20 18 24 51 24 l41 0 -3 -72z m162 46 c14 -35 14 -34
-25 -34 -19 0 -35 -4 -35 -9 0 -17 20 -23 35 -11 10 8 15 8 20 0 12 -19 -10
-32 -46 -28 -41 4 -60 41 -41 83 9 20 19 25 47 25 29 0 37 -5 45 -26z"/>
<path d="M13705 5010 c-3 -5 1 -10 10 -10 9 0 13 5 10 10 -3 6 -8 10 -10 10
-2 0 -7 -4 -10 -10z"/>
<path d="M14070 4964 c0 -14 3 -14 15 -4 8 7 15 14 15 16 0 2 -7 4 -15 4 -8 0
-15 -7 -15 -16z"/>
<path d="M14330 4965 c0 -9 6 -12 15 -9 8 4 15 10 15 15 0 5 -7 9 -15 9 -8 0
-15 -7 -15 -15z"/>
<path d="M14490 4964 c0 -14 3 -14 15 -4 8 7 15 14 15 16 0 2 -7 4 -15 4 -8 0
-15 -7 -15 -16z"/>
<path d="M14757 5013 c-11 -10 -8 -51 4 -59 18 -10 32 13 25 40 -6 26 -16 32
-29 19z"/>
<path d="M15095 5007 c-15 -38 9 -66 29 -35 8 14 7 21 -6 35 -16 15 -18 15
-23 0z"/>
<path d="M15395 5007 c-15 -38 9 -66 29 -35 8 14 7 21 -6 35 -16 15 -18 15
-23 0z"/>
<path d="M15504 5006 c-9 -23 0 -51 16 -51 10 0 15 10 15 29 0 32 -21 47 -31
22z"/>
<path d="M15621 5003 c-11 -21 4 -57 20 -48 12 8 12 52 0 60 -6 3 -14 -3 -20
-12z"/>
<path d="M15618 4918 c9 -9 15 -9 24 0 9 9 7 12 -12 12 -19 0 -21 -3 -12 -12z"/>
<path d="M15785 5010 c-3 -5 1 -10 10 -10 9 0 13 5 10 10 -3 6 -8 10 -10 10
-2 0 -7 -4 -10 -10z"/>
<path d="M13669 3423 c-1 -16 0 -44 1 -64 1 -38 -15 -54 -45 -43 -21 8 -20 70
1 78 9 4 14 9 11 13 -13 13 -37 -21 -37 -53 0 -37 10 -47 52 -49 l28 -2 0 74
c0 40 -2 73 -5 73 -3 0 -5 -12 -6 -27z"/>
<path d="M14522 3430 c0 -14 2 -19 5 -12 2 6 2 18 0 25 -3 6 -5 1 -5 -13z"/>
<path d="M12660 3370 c0 -68 1 -70 25 -70 38 0 75 41 69 77 -3 15 -12 35 -22
43 -14 13 -15 13 -5 0 7 -9 14 -28 17 -43 6 -33 -22 -67 -54 -67 -18 0 -20 7
-20 59 0 54 2 60 23 64 19 4 18 4 -5 6 l-28 1 0 -70z"/>
<path d="M12793 3355 c0 -33 2 -45 4 -27 2 18 2 45 0 60 -2 15 -4 0 -4 -33z"/>
<path d="M12850 3395 c-19 -22 -8 -25 13 -3 9 10 13 18 8 18 -5 0 -14 -7 -21
-15z"/>
<path d="M12953 3355 c0 -33 2 -45 4 -27 2 18 2 45 0 60 -2 15 -4 0 -4 -33z"/>
<path d="M12995 3400 c3 -5 12 -7 20 -3 21 7 19 13 -6 13 -11 0 -18 -4 -14
-10z"/>
<path d="M13085 3400 c-3 -6 1 -7 9 -4 18 7 21 14 7 14 -6 0 -13 -4 -16 -10z"/>
<path d="M13268 3394 c12 -8 22 -26 22 -39 0 -13 -10 -31 -22 -39 -12 -9 -18
-16 -12 -16 17 0 44 35 44 57 0 20 -28 53 -46 53 -4 0 2 -7 14 -16z"/>
<path d="M13396 3394 c-9 -8 -15 -27 -15 -42 l2 -27 4 25 c5 27 21 50 34 50 4
0 15 -7 23 -16 9 -8 16 -11 16 -5 0 9 -31 31 -44 31 -2 0 -12 -7 -20 -16z"/>
<path d="M13494 3388 l-19 -23 23 20 c18 15 27 17 40 9 27 -17 27 -59 0 -78
-12 -9 -18 -16 -12 -16 17 0 44 35 44 57 0 20 -29 53 -47 53 -5 0 -18 -10 -29
-22z"/>
<path d="M13776 3394 c-32 -31 -6 -104 32 -89 8 3 19 0 24 -7 4 -8 8 14 8 51
0 35 -3 61 -7 57 -4 -4 -6 -24 -4 -45 2 -29 -2 -40 -15 -45 -42 -16 -61 51
-22 78 12 9 17 16 11 16 -6 0 -19 -7 -27 -16z"/>
<path d="M13886 3394 c-22 -22 -20 -57 5 -80 22 -19 49 -12 57 17 2 8 -3 5
-11 -6 -13 -16 -19 -18 -34 -9 -28 17 -24 66 7 81 17 9 20 13 8 13 -9 0 -24
-7 -32 -16z"/>
<path d="M14054 3396 c-10 -8 -17 -16 -14 -19 3 -2 14 4 24 14 23 22 18 25
-10 5z"/>
<path d="M14322 3398 c-20 -20 -14 -35 18 -47 36 -12 39 -28 8 -41 -16 -6 -18
-9 -7 -9 26 -1 44 26 29 44 -7 8 -18 15 -26 15 -22 0 -28 22 -9 37 11 7 14 13
9 13 -6 0 -15 -5 -22 -12z"/>
<path d="M14586 3401 c-4 -5 3 -7 14 -4 23 6 26 13 6 13 -8 0 -17 -4 -20 -9z"/>
<path d="M12896 3385 c4 -8 8 -15 10 -15 2 0 4 7 4 15 0 8 -4 15 -10 15 -5 0
-7 -7 -4 -15z"/>
<path d="M13127 3384 c5 -14 1 -16 -29 -12 -34 3 -36 2 -34 -24 1 -15 6 -31
10 -35 4 -4 5 4 1 20 -7 26 -5 27 29 27 35 0 50 20 26 35 -6 4 -7 -1 -3 -11z"/>
<path d="M13225 3389 c-4 -6 -5 -12 -2 -15 2 -3 7 2 10 11 7 17 1 20 -8 4z"/>
<path d="M14210 3386 c0 -8 -8 -17 -17 -19 -14 -4 -12 -5 5 -6 16 -1 22 5 22
19 0 11 -2 20 -5 20 -3 0 -5 -6 -5 -14z"/>
<path d="M14523 3365 c0 -22 2 -30 4 -17 2 12 2 30 0 40 -3 9 -5 -1 -4 -23z"/>
<path d="M14448 3363 c6 -2 18 -2 25 0 6 3 1 5 -13 5 -14 0 -19 -2 -12 -5z"/>
<path d="M14579 3353 c-12 -16 -12 -17 1 -7 8 6 22 14 30 17 13 5 12 6 -1 6
-9 1 -23 -7 -30 -16z"/>
<path d="M14153 3344 c-8 -21 13 -39 46 -39 21 0 27 4 23 17 -4 15 -6 16 -19
2 -20 -20 -38 -13 -37 15 1 25 -4 27 -13 5z"/>
<path d="M14414 3345 c-7 -17 12 -45 29 -45 6 0 2 6 -8 14 -11 8 -16 19 -12
30 4 9 4 16 1 16 -2 0 -7 -7 -10 -15z"/>
<path d="M12840 3331 c0 -6 4 -13 10 -16 6 -3 7 1 4 9 -7 18 -14 21 -14 7z"/>
<path d="M12896 3325 c-3 -8 -1 -15 4 -15 6 0 10 7 10 15 0 8 -2 15 -4 15 -2
0 -6 -7 -10 -15z"/>
<path d="M13220 3331 c0 -6 4 -13 10 -16 6 -3 7 1 4 9 -7 18 -14 21 -14 7z"/>
<path d="M14040 3331 c0 -10 29 -36 34 -30 1 2 -6 12 -16 22 -10 9 -18 13 -18
8z"/>
<path d="M14101 3324 c0 -11 3 -14 6 -6 3 7 2 16 -1 19 -3 4 -6 -2 -5 -13z"/>
<path d="M14627 3326 c-3 -8 0 -17 7 -19 10 -4 12 1 9 14 -6 23 -9 24 -16 5z"/>
<path d="M13000 3326 c0 -2 8 -10 18 -17 15 -13 16 -12 3 4 -13 16 -21 21 -21
13z"/>
<path d="M14466 3321 c-3 -5 1 -11 9 -14 9 -4 12 -1 8 9 -6 16 -10 17 -17 5z"/>
<path d="M14570 3321 c0 -9 30 -24 36 -18 2 1 -6 8 -16 15 -11 7 -20 8 -20 3z"/>
<path d="M13105 3310 c-16 -7 -17 -9 -3 -9 9 -1 20 4 23 9 7 11 7 11 -20 0z"/>
<path d="M12900 3291 c0 -6 -10 -16 -22 -21 -16 -6 -18 -9 -7 -9 19 -1 45 26
35 36 -3 3 -6 1 -6 -6z"/>
<path d="M12495 2836 c-59 -26 -60 -28 -63 -282 -3 -200 -1 -237 13 -264 33
-64 -102 -60 1992 -60 1869 0 1909 1 1937 19 53 35 55 48 56 289 0 250 -5 272
-65 298 -49 20 -3823 20 -3870 0z m2425 -291 c0 -60 -3 -75 -15 -75 -11 0 -16
12 -17 43 l-1 42 -4 -43 -4 -43 -47 3 c-45 3 -47 4 -47 33 0 25 4 30 28 33 15
2 27 7 27 12 0 5 -14 7 -31 3 -25 -5 -31 -3 -27 8 6 17 67 24 81 10 18 -18 27
-12 27 19 0 20 5 30 15 30 12 0 15 -15 15 -75z m-990 55 c0 -5 -16 -10 -35
-10 -28 0 -35 -4 -35 -20 0 -16 7 -20 30 -20 17 0 30 -4 30 -10 0 -5 -13 -10
-30 -10 -23 0 -30 -4 -30 -20 0 -16 7 -20 35 -20 19 0 35 -4 35 -10 0 -5 -25
-10 -55 -10 l-55 0 0 70 0 70 55 0 c30 0 55 -4 55 -10z m160 -5 c0 -15 38 -20
132 -15 43 2 58 -18 58 -75 l0 -36 -47 3 c-46 3 -48 4 -48 33 0 25 4 30 28 33
44 5 23 18 -22 14 -40 -4 -41 -5 -41 -44 l0 -39 -47 3 -48 3 -6 50 c-3 28 -4
58 -1 68 5 21 42 23 42 2z m-60 -17 c0 -2 3 -27 6 -55 6 -49 5 -53 -14 -53
-17 0 -21 7 -24 43 -2 23 -7 42 -13 42 -5 0 -11 -19 -13 -42 -2 -28 -8 -43
-17 -43 -15 0 -22 30 -16 78 3 31 5 32 47 32 24 0 44 -1 44 -2z m324 -13 c-4
-8 -12 -15 -20 -15 -10 0 -14 -12 -14 -40 0 -29 -4 -40 -15 -40 -12 0 -15 13
-15 55 l0 55 35 0 c26 0 33 -3 29 -15z m150 -23 c10 -30 12 -31 23 -13 10 15
10 21 0 24 -24 9 10 29 44 25 33 -3 34 -4 39 -55 l6 -53 -41 0 c-23 0 -46 5
-53 12 -9 9 -12 9 -12 0 0 -7 -9 -12 -19 -12 -16 0 -20 8 -23 43 -2 23 -7 42
-13 42 -5 0 -11 -19 -13 -42 -2 -29 -8 -43 -18 -43 -10 0 -14 14 -14 56 l0 55
42 -3 c37 -3 43 -7 52 -36z m263 23 c8 -23 -5 -31 -26 -18 -11 7 -22 9 -25 6
-4 -4 8 -13 25 -20 23 -10 30 -18 27 -35 -3 -25 -32 -34 -74 -24 -28 7 -33 36
-6 37 10 0 12 3 5 6 -14 5 -18 45 -6 56 13 14 74 7 80 -8z m261 3 c7 -7 12
-32 12 -56 l0 -43 -47 3 c-46 3 -48 4 -48 33 0 25 5 31 30 36 32 7 25 12 -12
9 -22 -1 -30 10 -16 23 11 12 68 8 81 -5z"/>
<path d="M14815 2511 c-6 -11 9 -23 19 -14 9 9 7 23 -3 23 -6 0 -12 -4 -16 -9z"/>
<path d="M14090 2525 c0 -19 5 -35 10 -35 6 0 10 16 10 35 0 19 -4 35 -10 35
-5 0 -10 -16 -10 -35z"/>
<path d="M14215 2511 c-6 -11 9 -23 19 -14 9 9 7 23 -3 23 -6 0 -12 -4 -16 -9z"/>
<path d="M14555 2550 c-3 -5 1 -10 10 -10 9 0 13 5 10 10 -3 6 -8 10 -10 10
-2 0 -7 -4 -10 -10z"/>
<path d="M14550 2510 c0 -5 7 -10 15 -10 8 0 15 5 15 10 0 6 -7 10 -15 10 -8
0 -15 -4 -15 -10z"/>
<path d="M14710 2500 c0 -5 5 -10 10 -10 6 0 10 5 10 10 0 6 -4 10 -10 10 -5
0 -10 -4 -10 -10z"/>
<path d="M14975 2511 c-6 -11 9 -23 19 -14 9 9 7 23 -3 23 -6 0 -12 -4 -16 -9z"/>
</g>
</svg>
