<?xml version="1.0" standalone="yes"?>
<svg width="1920" height="930">
<path style="fill:#835afe; stroke:none;" d="M0 0L0 930L963 930L963 0L0 0z"/>
<path style="fill:#8061e0; stroke:none;" d="M963 0L963 930L964 930L964 270L964 80L964 25L963 0z"/>
<path style="fill:#8069b7; stroke:none;" d="M964 0L964 930L965 930L965 270L965 80L965 25L964 0z"/>
<path style="fill:#f8f8f8; stroke:none;" d="M965 0L965 930L1920 930L1920 0L965 0z"/>
<path style="fill:#ab8ffe; stroke:none;" d="M256 264L268 252C272.046 250.657 271.953 247.935 272 244L276 244L276 240L280 240C282.816 227.584 294.443 218.714 300.2 207.486C303.091 201.847 301.642 195.399 308 192L313 175L317 176L315 172L318 173C314.614 157.081 292.57 164.095 284.004 170.258C263.587 184.949 250.145 212.975 249.039 238C248.731 244.99 247.051 262.451 256 264z"/>
<path style="fill:#9b7afd; stroke:none;" d="M318 171L315 172L317 176L313 175L314 178L308 192C301.741 194.03 302.656 200.627 300.58 205.816C295.654 218.132 281.781 226.632 280 240L276 240L276 244L272 244C271.875 247.878 271.498 250.072 268 252L256 264L252 264C259.717 284.913 280.457 284.153 295.561 270.661C315.302 253.028 326 226.217 326 200C326 189.939 325.832 178.399 318 171z"/>
<path style="fill:#7163c4; stroke:none;" d="M1449 227L1449 228L1513 227L1494 226L1449 227z"/>
<path style="fill:#6c5cf0; stroke:none;" d="M1445 244L1448 244C1448 239.909 1447.47 235.047 1451.34 232.434C1455.75 229.463 1463.92 231 1469 231L1513 231C1520.43 231 1533.41 228.062 1536 237L1537 237C1537.65 235.04 1538 234.446 1538 237L1539 237L1537 228C1518.41 222.108 1493.52 227 1474 227C1467.29 227 1456.3 224.929 1450.29 228.318C1444.39 231.643 1445 238.199 1445 244z"/>
<path style="fill:#6463af; stroke:none;" d="M1444 245L1449 245L1449 234L1448 234L1448 244L1445 244L1449 228C1442.58 231.37 1444 238.681 1444 245z"/>
<path style="fill:#af61eb; stroke:none;" d="M1536 229L1539 237L1538 237C1537.49 234.471 1537.51 234.471 1537 237L1536 237L1532 231C1539.95 245.451 1535 271.679 1535 288L1536 288L1537 248L1538 248L1538 256L1540 256C1540 248.617 1543.03 233.434 1536 229z"/>
<path style="fill:#b7a9f8; stroke:none;" d="M1451 231L1451 232L1532 232L1507 231L1451 231z"/>
<path style="fill:#f8c5ff; stroke:none;" d="M1534 234L1534 288L1535 288L1535 252L1534 234z"/>
<path style="fill:#a7b0f5; stroke:none;" d="M1443 235L1443 245L1444 245L1443 235z"/>
<path style="fill:#f6cbff; stroke:none;" d="M1540 235L1540 288L1541 288L1541 252L1540 235z"/>
<path style="fill:#ceced0; stroke:none;" d="M1345 248L1345 249L1351 249L1345 248z"/>
<path style="fill:#dec9ff; stroke:none;" d="M1500 248L1500 249L1505 251C1506.23 247.725 1502.5 248.041 1500 248z"/>
<path style="fill:#d85fec; stroke:none;" d="M1537 248L1536 277L1533.43 288.852L1515 291L1519 311L1503 301C1504.86 305.729 1518.43 322.975 1523.97 315.343C1526.92 311.272 1522.24 300.414 1521 296C1525.89 296 1532.73 297.22 1536.61 293.566C1540.35 290.032 1540 284.705 1540 280C1540 269.439 1541.21 257.901 1537 248z"/>
<path style="fill:#2a292e; stroke:none;" d="M1345 249L1345 275L1350 275L1350 249L1345 249z"/>
<path style="fill:#818085; stroke:none;" d="M1350 249L1350 275L1345 275L1345 276L1351 276L1350 249z"/>
<path style="fill:#b862e7; stroke:none;" d="M1497 267L1501 263L1502 263L1508 265L1519 257L1519 256C1512 256.063 1508.44 258.901 1503 263L1505 249C1497.02 249.636 1497.28 260.531 1497 267z"/>
<path style="fill:#c9c9cb; stroke:none;" d="M1376 251L1376 252L1382 252L1376 251z"/>
<path style="fill:#5c5c5e; stroke:none;" d="M1376 252L1376 257L1377 257L1376 252z"/>
<path style="fill:#29282d; stroke:none;" d="M1377 252L1377 257L1374 257L1374 261L1377 261C1377 269.956 1376.74 274.964 1387 275L1387 272C1381.28 270.342 1381.02 266.368 1381 261L1386 261L1386 257L1381 257L1381 252L1377 252z"/>
<path style="fill:#575759; stroke:none;" d="M1381 252L1381 257L1382 257L1381 252z"/>
<path style="fill:#28272c; stroke:none;" d="M1371 274L1359 267L1373 267C1372.89 264.925 1372.85 262.922 1371.82 261.039C1362.12 243.219 1341.2 274.294 1363 274.977C1365.76 275.063 1368.33 274.636 1371 274z"/>
<path style="fill:#919095; stroke:none;" d="M1373 256L1373 257L1376 257L1373 256z"/>
<path style="fill:#8f8e93; stroke:none;" d="M1382 256L1382 257L1386 257L1382 256z"/>
<path style="fill:#929196; stroke:none;" d="M1389 256L1389 275L1390 275L1389 256z"/>
<path style="fill:#5d5c61; stroke:none;" d="M1390 256L1390 257L1395 257L1390 256z"/>
<path style="fill:#29282e; stroke:none;" d="M1390 257L1390 275L1395 275C1395 259.835 1403 259.668 1403 275L1408 275C1408 259.677 1417 259.671 1417 275L1422 275C1422 266.945 1420.42 248.197 1408 259L1390 257z"/>
<path style="fill:#a2a1a6; stroke:none;" d="M1403.67 256.333L1404.33 256.667L1403.67 256.333z"/>
<path style="fill:#69686d; stroke:none;" d="M1410.67 256.333L1411.33 256.667L1410.67 256.333z"/>
<path style="fill:#2b2a2f; stroke:none;" d="M1443 273L1443 272L1430 267L1444 267C1443.95 265.041 1444.06 262.944 1443.26 261.1C1436.48 245.462 1414.36 267.867 1430.04 274.258C1431.88 275.007 1434.04 275.024 1436 274.978C1438.77 274.914 1440.6 274.283 1443 273z"/>
<path style="fill:#835fd9; stroke:none;" d="M1459 274L1457 272C1459.1 266.438 1463.61 257.584 1470 264L1471 264L1472 260L1474 260L1475 261L1474 269L1475 269L1477 256L1471 258C1459.72 251.98 1447.97 267.553 1459 274z"/>
<path style="fill:#9466d3; stroke:none;" d="M1479 265L1480 265C1481.35 256.33 1487.74 260.186 1494 261L1495 257C1487.16 255.134 1479.31 255.376 1479 265z"/>
<path style="fill:#858587; stroke:none;" d="M1357 257L1358 258L1357 257z"/>
<path style="fill:#5a595e; stroke:none;" d="M1373 257L1373 261L1374 261L1373 257z"/>
<path style="fill:#919193; stroke:none;" d="M1386 257L1386 261L1387 261L1386 257z"/>
<path style="fill:#8f8f8f; stroke:none;" d="M1440 257L1441 258L1440 257z"/>
<path style="fill:#b564e7; stroke:none;" d="M1488 268C1485.53 272.43 1482.32 271.355 1478 270L1476 274C1488.63 279.329 1501.23 267.519 1484 263L1486 258C1476.98 259.439 1480.31 267.577 1488 268z"/>
<path style="fill:#f7f6fc; stroke:none;" d="M1359 264L1367 264C1365.32 259.213 1361.21 260.007 1359 264z"/>
<path style="fill:#f9f8fd; stroke:none;" d="M1430 264L1439 264C1436.5 259.475 1432.72 259.824 1430 264z"/>
<path style="fill:#a267db; stroke:none;" d="M1472 260C1469.48 265.648 1461.95 276.517 1460 264L1459 264L1457 272C1462.36 276.902 1467.17 274.866 1474 275L1475 261L1474 260L1472 260z"/>
<path style="fill:#5b5a5f; stroke:none;" d="M1376 261L1376 272L1377 272L1376 261z"/>
<path style="fill:#59595b; stroke:none;" d="M1381 261L1381 270L1382 270L1381 261z"/>
<path style="fill:#939297; stroke:none;" d="M1410 261L1411 262L1410 261z"/>
<path style="fill:#f8f5fc; stroke:none;" d="M1463.15 262.032C1458.12 264.928 1461.35 273.007 1466.77 269.953C1472 267.007 1469.11 258.599 1463.15 262.032z"/>
<path style="fill:#636267; stroke:none;" d="M1353.33 262.667L1353.67 263.333L1353.33 262.667z"/>
<path style="fill:#b5b4ba; stroke:none;" d="M1367.33 262.667L1367.67 263.333L1367.33 262.667z"/>
<path style="fill:#5a5a62; stroke:none;" d="M1444 262L1444 267L1445 267L1444 262z"/>
<path style="fill:#c3c2c7; stroke:none;" d="M1395 263L1395 276L1396 276L1395 263z"/>
<path style="fill:#929292; stroke:none;" d="M1416 263L1416 276L1422 276L1422 275L1417 275L1416 263z"/>
<path style="fill:#8f8e94; stroke:none;" d="M1424 263L1424 268L1425 268L1424 263z"/>
<path style="fill:#d861ef; stroke:none;" d="M1501 263L1495 275L1501 275L1505 268C1507.38 272.728 1509.64 274.822 1515 275L1509 263L1501 263z"/>
<path style="fill:#5d5d5f; stroke:none;" d="M1408 264L1408 275L1409 275L1408 264z"/>
<path style="fill:#c3c2c8; stroke:none;" d="M1422 264L1422 276L1423 276L1422 264z"/>
<path style="fill:#c3adf6; stroke:none;" d="M1454 264L1454 270L1455 270L1454 264z"/>
<path style="fill:#919095; stroke:none;" d="M1359 267L1359 268L1373 268L1359 267z"/>
<path style="fill:#939298; stroke:none;" d="M1430 269L1445 268C1441.12 266.372 1432.93 265.646 1430 269z"/>
<path style="fill:#555459; stroke:none;" d="M1383 271L1383 272L1387 272L1383 271z"/>
<path style="fill:#e5a8f5; stroke:none;" d="M1482 271L1482 272L1487 272L1482 271z"/>
<path style="fill:#99999b; stroke:none;" d="M1355 272L1356 273L1355 272z"/>
<path style="fill:#78787a; stroke:none;" d="M1387.33 273.667L1387.67 274.333L1387.33 273.667z"/>
<path style="fill:#8c878b; stroke:none;" d="M1442 273L1443 274L1442 273z"/>
<path style="fill:#d9aef3; stroke:none;" d="M1467 274L1467 275L1474 276L1474 275L1467 274z"/>
<path style="fill:#959597; stroke:none;" d="M1360.67 275.333L1361.33 275.667L1360.67 275.333z"/>
<path style="fill:#5f5f61; stroke:none;" d="M1362 275L1362 276L1366 276L1362 275z"/>
<path style="fill:#b9b9bb; stroke:none;" d="M1366.67 275.333L1367.33 275.667L1366.67 275.333z"/>
<path style="fill:#575759; stroke:none;" d="M1380 275L1380 276L1386 276L1380 275z"/>
<path style="fill:#919193; stroke:none;" d="M1390 275L1390 276L1395 276L1390 275z"/>
<path style="fill:#939395; stroke:none;" d="M1403 275L1403 276L1409 276L1403 275z"/>
<path style="fill:#8b8b8d; stroke:none;" d="M1432.67 275.333L1433.33 275.667L1432.67 275.333z"/>
<path style="fill:#56555a; stroke:none;" d="M1434 275L1434 276L1438 276L1434 275z"/>
<path style="fill:#a75dee; stroke:none;" d="M1443 286C1443.6 298.988 1452.31 299 1463 299C1476.74 299 1492.31 296.142 1504 304L1503 301L1513 306C1502.3 291.119 1484.2 295 1468 295C1459.91 295 1449.8 296.583 1449 286L1443 286z"/>
<path style="fill:#ffc3ff; stroke:none;" d="M1515 290L1515 291L1532 291L1515 290z"/>
<path style="fill:#be89e3; stroke:none;" d="M1453 294L1453 295L1502 296L1487 294L1453 294z"/>
<path style="fill:#c88ce4; stroke:none;" d="M1452 299L1452 300L1499 300C1486.82 294.89 1465.26 299 1452 299z"/>
<path style="fill:#ff9aff; stroke:none;" d="M1518 308L1519 311L1518 308z"/>
<path style="fill:#9978fb; stroke:none;" d="M181 324C176.062 336.427 163.438 349.152 166 363C170.24 362.38 172.947 360.794 175 357L176 357L176 375L179 375L179 370L181 370L181 375L182 375L187 350C192.566 349.577 200.636 342.788 196.972 336.465C193.964 331.272 187.024 328.384 183 324L181 324z"/>
<path style="fill:#9877fc; stroke:none;" d="M351 421L361.625 419.329L423 384L425 362L426 362L426 367C428.44 363.63 429.778 358.412 434.025 356.801C437.685 355.412 438.748 359.435 441.94 359.368C446.222 359.279 448.442 349.337 447.664 346.109C446.561 341.539 441.415 341.938 438.004 343.404C428.568 347.457 420.14 354.073 411 358.755C396.963 365.946 383.911 375.109 370 382.626C364.679 385.501 355.344 388.792 352.179 394.21C348.46 400.575 351 413.765 351 421z"/>
<path style="fill:#9d7cfe; stroke:none;" d="M313 586C319.875 582.475 328.035 569.23 330 562L325 560L331 561C336.087 543.836 362.239 537.186 360 517L428.91 477.22L455 463L455 454L448 457L449 452L439 455C450.333 443.033 480.985 439.802 481 421L400 466L404 456L405 456L405 460L406 460L408 448C421.515 455.168 422.87 437.038 433 432C433.902 425.738 439.745 415.851 446 414L445 411L451.804 401.765L461 395L463 397L464 397L464 392L470 389C458.108 389.856 446.262 401.008 436 406.512C407.265 421.923 379.648 439.722 351 455.457C341.19 460.845 318.596 469.148 313.179 479.093C309.444 485.951 312 499.328 312 507L312 559C312 567.607 310.553 577.72 313 586z"/>
<path style="fill:#ffe2dc; stroke:none;" d="M1248 400C1262.86 396.461 1280.74 399 1296 399L1391 399L1554 399C1580.67 399 1610.78 395.132 1637 400C1631.57 395.884 1620.63 398 1614 398L1557 398L1335 398L1270 398C1264.47 398 1251.8 395.656 1248 400z"/>
<path style="fill:#b6584e; stroke:none;" d="M1249 399L1249 400L1635 400L1601 399L1522 399L1249 399z"/>
<path style="fill:#d94b3f; stroke:none;" d="M1247.23 401.028C1243.05 403.583 1244 409.852 1244 414L1244 447C1244 451.78 1243.66 457.332 1249.02 459.397C1256.35 462.221 1268.19 460 1276 460L1338 460L1548 460L1616 460C1622.09 460 1635.44 462.261 1640.11 457.4C1642.96 454.434 1642 448.74 1642 445L1642 413C1642 408.661 1642.89 402.604 1637.94 400.603C1631.01 397.805 1619.43 400 1612 400L1551 400L1342 400L1274 400C1267.08 400 1253.23 397.356 1247.23 401.028z"/>
<path style="fill:#9a78ff; stroke:none;" d="M152 466L156 466L155 461L160 464C160.038 453.208 167.03 454.05 176 452L176 447L190 444L195 440L195 446C203.817 442.845 225.998 433.628 228 424L229 424C229.417 429.465 234.036 433.49 238 428C226.988 431.784 230.603 415.196 240 416C243.618 410.171 248.803 410.116 249 402C238.085 400.071 228.459 408.465 219.576 413.88C204.755 422.915 189.342 431.764 174 439.908C168.216 442.979 156.472 447.649 153.028 453.329C150.997 456.678 152 462.231 152 466z"/>
<path style="fill:#ea4235; stroke:none;" d="M1641 404C1629.58 399.154 1616.35 401 1604 401L1534 401L1340 401L1280 401C1271 401 1259.72 399.189 1251.02 401.613C1240.19 404.628 1245 432.835 1245 442C1245 445.882 1243.88 451.987 1246.7 455.116C1252.23 461.25 1263.67 459 1271 459L1336 459L1552 459L1612 459C1619.15 459 1630.38 461.074 1636.86 457.566C1641.77 454.906 1641 447.719 1641 443L1641 404z"/>
<path style="fill:#b35b4d; stroke:none;" d="M1243 406L1243 453L1244 453C1244 439.735 1248.11 418.176 1243 406z"/>
<path style="fill:#b55b52; stroke:none;" d="M1642 406L1642 454L1643 454C1643 440.474 1647.21 418.414 1642 406z"/>
<path style="fill:#d560ff; stroke:none;" d="M235.3 416.072C230.893 418.418 227.953 432.176 235.49 429.083C241.436 426.644 242.73 412.116 235.3 416.072z"/>
<path style="fill:#fcfdf5; stroke:none;" d="M1330 427L1315 427L1315 433L1322 433C1316.39 440.428 1303.09 437.173 1307.55 427.04C1311.11 418.947 1320.04 424.447 1325 418C1310.91 410.917 1291.78 422.953 1302.73 438.956C1312.9 453.821 1329.88 440.878 1330 427z"/>
<path style="fill:#c44b50; stroke:none;" d="M1361 420L1361 425L1353 425L1350 428L1350 429L1353 429C1350.99 446.868 1330.68 423.66 1351 423L1351 422C1343.7 422.026 1332.34 430.488 1342.48 436.972C1345.71 439.035 1350.54 437.643 1354 437L1354 426L1364 426L1364 421L1361 420z"/>
<path style="fill:#e69c9d; stroke:none;" d="M1312 421L1312 422L1316 422L1312 421z"/>
<path style="fill:#ffdabe; stroke:none;" d="M1362 421L1362 424L1364 424L1364 421L1362 421z"/>
<path style="fill:#ffc6b4; stroke:none;" d="M1441 422L1441 423L1443 437L1444 437L1444 422L1441 422z"/>
<path style="fill:#ffdad7; stroke:none;" d="M1570 422L1570 437L1573 437L1573 422L1570 422z"/>
<path style="fill:#ffe7db; stroke:none;" d="M1353 432L1346 435C1343.35 427.491 1346.32 426.362 1353 428C1351.02 421.492 1342.16 421.767 1341.27 429.005C1340.28 437.149 1350.18 439.363 1353 432z"/>
<path style="fill:#ffd6e6; stroke:none;" d="M1441 423L1441 437L1443 437L1443 423L1441 423z"/>
<path style="fill:#ffece8; stroke:none;" d="M1534 430L1528 430L1531 435C1522.26 432.464 1525.86 425.797 1534 428C1531.19 420.649 1521.09 422.804 1522.25 430.995C1523.45 439.439 1533.73 438.179 1534 430z"/>
<path style="fill:#bd635a; stroke:none;" d="M1384 425L1384 426C1386.56 426.215 1392.24 427.484 1388 430L1388 431L1391 436L1393 436L1394 424L1384 425z"/>
<path style="fill:#b3554d; stroke:none;" d="M1537 426L1533 425L1534 428C1524.58 423.823 1522.38 433.625 1531 435L1528 430L1534 430C1534.31 439.306 1552.54 441.887 1557 435C1548.18 438.633 1549.87 432.225 1545 428C1548.05 444.573 1526.1 428.632 1543 426C1540.69 424.255 1539.02 423.717 1537 426z"/>
<path style="fill:#df4835; stroke:none;" d="M1346 435L1353 432L1353 429C1346.61 425.698 1341.99 426.608 1346 435z"/>
<path style="fill:#eabcbe; stroke:none;" d="M1354 426L1354 437L1355 437L1354 426z"/>
<path style="fill:#fff5d7; stroke:none;" d="M1355 426L1355 437L1357 437L1360 426L1355 426z"/>
<path style="fill:#e9a49f; stroke:none;" d="M1360 426L1358 428L1358 429L1361 437L1362 437L1362 426L1360 426z"/>
<path style="fill:#ffe9e3; stroke:none;" d="M1362 426L1362 437L1364 437L1364 426L1362 426z"/>
<path style="fill:#ed927f; stroke:none;" d="M1364 426L1364 437L1365 437L1364 426z"/>
<path style="fill:#ffede2; stroke:none;" d="M1376 434L1370 432L1376 432C1375.24 427.255 1368.88 423.34 1367.34 430.058C1365.97 436.046 1372.82 438.902 1376 434z"/>
<path style="fill:#ffe8d8; stroke:none;" d="M1385 432L1385 433L1382 433C1384.43 439.905 1394.26 435.092 1388 431L1388 430L1391 430C1388.63 423.269 1379.39 428.223 1385 432z"/>
<path style="fill:#ffece6; stroke:none;" d="M1393 426C1393 433.946 1393.43 436.97 1402 437L1401 427L1400 427C1399.87 430.903 1399.4 432.915 1396 435L1395 426L1393 426z"/>
<path style="fill:#eead83; stroke:none;" d="M1395 426L1395 434L1396 434L1395 426z"/>
<path style="fill:#ffd3b8; stroke:none;" d="M1399 426L1399 434L1400 434L1400 427L1401 427L1401 434L1402 434L1402 426L1399 426z"/>
<path style="fill:#bd564d; stroke:none;" d="M1402 426C1402 434.86 1402.45 437.973 1412 438L1412 437C1405.32 436.783 1401.55 431.325 1410 430L1410 429L1404 429L1405 426L1402 426z"/>
<path style="fill:#ffebe2; stroke:none;" d="M1404 429L1410 429L1410 430C1400.62 430.715 1404.51 436.912 1412 437C1412 432.448 1409.68 420.246 1404 429z"/>
<path style="fill:#ffdddc; stroke:none;" d="M1425 435L1419 433C1421.43 439.905 1431.26 435.092 1425 431L1425 430L1428 430C1426.74 426.201 1419.12 424.582 1419.92 429.785C1420.24 431.844 1423.61 433.614 1425 435z"/>
<path style="fill:#fff2e9; stroke:none;" d="M1430 429L1436 428C1430.35 432.621 1428.37 436.886 1438 437C1438 432.448 1435.68 420.246 1430 429z"/>
<path style="fill:#ffece9; stroke:none;" d="M1446 429L1452 429L1452 430C1442.62 430.715 1446.51 436.912 1454 437C1454 432.448 1451.68 420.246 1446 429z"/>
<path style="fill:#ffe6d7; stroke:none;" d="M1471 433L1465 435L1465 428L1471 430C1461.31 412.428 1461.6 450.025 1471 433z"/>
<path style="fill:#ffe5e0; stroke:none;" d="M1474.32 427.032C1469.13 430.377 1474 439.632 1479.68 435.968C1484.87 432.623 1480.01 423.368 1474.32 427.032z"/>
<path style="fill:#f5b2b9; stroke:none;" d="M1483 426L1483 437L1484 437L1484 427L1488 427L1483 426z"/>
<path style="fill:#ffe9ea; stroke:none;" d="M1484 427L1484 437L1486 437L1487 428L1489 428L1490 437L1492 437C1492.05 432.839 1492.17 430.112 1496 428L1497 436L1498 436L1498 426L1484 427z"/>
<path style="fill:#da9b8c; stroke:none;" d="M1491.67 426.333L1492.33 426.667L1491.67 426.333z"/>
<path style="fill:#ffe1db; stroke:none;" d="M1508.32 427.043C1503.16 430.294 1507.98 439.687 1513.57 435.968C1518.62 432.602 1513.86 423.55 1508.32 427.043z"/>
<path style="fill:#ffe9de; stroke:none;" d="M1538.32 427.043C1533.16 430.296 1537.9 439.588 1543.57 435.816C1548.62 432.452 1543.79 423.594 1538.32 427.043z"/>
<path style="fill:#ffe7e0; stroke:none;" d="M1549.32 427.032C1544.23 430.314 1549 439.756 1554.49 435.968C1559.53 432.484 1555.09 423.311 1549.32 427.032z"/>
<path style="fill:#ffe8db; stroke:none;" d="M1565 437L1565 438L1559 438C1566.05 448.859 1568 430.299 1568 426C1559.23 426.031 1554.69 435.814 1565 437z"/>
<path style="fill:#ffeff2; stroke:none;" d="M1584 434L1578 432L1584 432C1583.58 426.79 1576.86 423.39 1575.34 430.058C1573.97 436.046 1580.82 438.902 1584 434z"/>
<path style="fill:#ffc8b6; stroke:none;" d="M1498 427L1498 436L1497 436L1497 433L1496 433L1496 437L1499 437L1498 427z"/>
<path style="fill:#e28f8b; stroke:none;" d="M1306 428L1306 431L1307 431L1306 428z"/>
<path style="fill:#966761; stroke:none;" d="M1370 428L1373 430L1370 428z"/>
<path style="fill:#9c5d65; stroke:none;" d="M1385 428L1385 430L1388 430L1388 428L1385 428z"/>
<path style="fill:#f8aa84; stroke:none;" d="M1412 428L1412 437L1413 437L1412 428z"/>
<path style="fill:#a66563; stroke:none;" d="M1422 428L1422 430L1425 430L1425 428L1422 428z"/>
<path style="fill:#945e6c; stroke:none;" d="M1431 429L1431 430L1436 428L1431 429z"/>
<path style="fill:#ffbdb4; stroke:none;" d="M1438 428L1438 437L1439 437L1438 428z"/>
<path style="fill:#9b6565; stroke:none;" d="M1446 431L1452 430C1449.45 428.366 1447.87 428.57 1446 431z"/>
<path style="fill:#feab7f; stroke:none;" d="M1454 428L1454 437L1455 437L1454 428z"/>
<path style="fill:#ae5b3d; stroke:none;" d="M1476 428L1475 434L1478 428L1476 428z"/>
<path style="fill:#a96363; stroke:none;" d="M1482 428L1481 438L1486 438L1486 437L1483 437L1482 428z"/>
<path style="fill:#c85871; stroke:none;" d="M1487 428L1489 437L1490 437L1487 428z"/>
<path style="fill:#ad6568; stroke:none;" d="M1509 428L1512 433C1512.98 430.012 1511.85 428.937 1509 428z"/>
<path style="fill:#b8574e; stroke:none;" d="M1539 428L1540 435L1542 435C1542.98 431.326 1542.8 429.26 1539 428z"/>
<path style="fill:#c75147; stroke:none;" d="M1551 428L1551 435L1553 435L1553 428L1551 428z"/>
<path style="fill:#986f69; stroke:none;" d="M1557 428L1557 434L1558 434L1559 428L1557 428z"/>
<path style="fill:#c6523b; stroke:none;" d="M1565 435L1565 428C1560.47 429.199 1560.56 433.701 1565 435z"/>
<path style="fill:#9b6259; stroke:none;" d="M1573 428L1573 435L1574 435L1575 428L1573 428z"/>
<path style="fill:#9e635f; stroke:none;" d="M1578 428L1578 430L1581 430L1581 428L1578 428z"/>
<path style="fill:#e09774; stroke:none;" d="M1357 429L1357 437L1358 437L1357 429z"/>
<path style="fill:#ffbbb3; stroke:none;" d="M1366 429L1366 434L1367 434L1366 429z"/>
<path style="fill:#ffaeb1; stroke:none;" d="M1461 429L1461 434L1462 434L1461 429z"/>
<path style="fill:#b0696d; stroke:none;" d="M1478 429L1476 435C1478.55 433.35 1479.1 431.88 1478 429z"/>
<path style="fill:#f88a71; stroke:none;" d="M1486 429L1486 437L1487 437L1486 429z"/>
<path style="fill:#ffa280; stroke:none;" d="M1492 429L1492 437L1493 437L1492 429z"/>
<path style="fill:#e5bcb8; stroke:none;" d="M1558 429L1558 434L1559 434L1558 429z"/>
<path style="fill:#ffaeb5; stroke:none;" d="M1565 429L1565 434L1566 434L1565 429z"/>
<path style="fill:#b95b42; stroke:none;" d="M1464 430C1464.62 432.9 1464.97 434.073 1468 434L1464 430z"/>
<path style="fill:#f893a1; stroke:none;" d="M1505 430L1505 433L1506 433L1505 430z"/>
<path style="fill:#e59675; stroke:none;" d="M1508 430L1508 433L1509 433L1508 430z"/>
<path style="fill:#d2453b; stroke:none;" d="M1509 430L1512 435L1512 430L1509 430z"/>
<path style="fill:#f3a3ae; stroke:none;" d="M1535 430L1535 433L1536 433L1535 430z"/>
<path style="fill:#efa082; stroke:none;" d="M1538 430L1538 434L1539 434L1538 430z"/>
<path style="fill:#e1acb2; stroke:none;" d="M1574 430L1574 433L1575 433L1574 430z"/>
<path style="fill:#9d5f60; stroke:none;" d="M1382 431L1385 433L1385 432L1382 431z"/>
<path style="fill:#e49c8e; stroke:none;" d="M1406 432L1406 435L1407 435L1406 432z"/>
<path style="fill:#a55757; stroke:none;" d="M1407 435L1410 432L1407 435z"/>
<path style="fill:#ae6461; stroke:none;" d="M1420 432L1420 433L1425 435L1420 432z"/>
<path style="fill:#a75b5f; stroke:none;" d="M1433 435L1436 432L1433 435z"/>
<path style="fill:#b95e63; stroke:none;" d="M1448 432L1449 435L1451 435L1452 432L1448 432z"/>
<path style="fill:#eaad9b; stroke:none;" d="M1561.33 432.667L1561.67 433.333L1561.33 432.667z"/>
<path style="fill:#b75d54; stroke:none;" d="M1578 432L1579 435L1584 432L1578 432z"/>
<path style="fill:#f2a9a3; stroke:none;" d="M1300.33 433.667L1300.67 434.333L1300.33 433.667z"/>
<path style="fill:#e89b91; stroke:none;" d="M1315 433L1315 434L1322 434L1315 433z"/>
<path style="fill:#99645e; stroke:none;" d="M1385 433L1385 435L1388 435L1388 433L1385 433z"/>
<path style="fill:#fda49c; stroke:none;" d="M1556.33 433.667L1556.67 434.333L1556.33 433.667z"/>
<path style="fill:#a07fff; stroke:none;" d="M162 477C178.573 473.242 195.199 458.701 210 450.425C217.071 446.471 224.16 445.229 225 436C208.283 442.083 191.04 453.588 176 463.054C169.764 466.979 162.447 468.87 162 477z"/>
<path style="fill:#d5978a; stroke:none;" d="M1312 438L1312 439L1316 439L1312 438z"/>
<path style="fill:#9a79fb; stroke:none;" d="M103 592L114 591L115 594L116 594L117 592L117 591L119 585L119 596C134.66 591.973 150.173 578.582 164 570.348C184.311 558.253 204.364 549.638 226 541C221.077 547.569 213.768 549.72 207 553.811C192.815 562.386 177.921 569.973 164 578.95C155.51 584.424 145.04 586.547 145 598L178 581L179 582L165 593C171.654 591.975 186.946 590.246 192 595C198.555 593.413 206.958 593.369 213 590.722C232.012 582.394 248.756 567.985 267.285 558.532C272.708 555.766 283.428 563.672 286.972 559.382C289.444 556.39 288 548.655 288 545L288 507L288 469C288 464.825 288.981 458.195 284.467 455.862C279.734 453.415 273.942 458.087 270 460.231C257.464 467.047 245.53 474.996 232.985 481.745C203.497 497.61 175.728 517.098 145.996 532.395C135.519 537.786 125.052 543.163 115 549.319C111.405 551.521 106.4 553.514 104.179 557.301C99.5718 565.154 103 582.988 103 592z"/>
<path style="fill:#ffe2da; stroke:none;" d="M1247 459C1250.69 464.685 1264.8 462 1271 462L1341 462L1634 462L1634 461L1365 461L1286 461C1273.61 461 1258.74 463.28 1247 459z"/>
<path style="fill:#b6584c; stroke:none;" d="M1250 460L1250 461L1510 461L1593 461L1638 460L1604 460L1523 460L1250 460z"/>
<path style="fill:#815bfe; stroke:none;" d="M341.996 479.747C333.478 481.713 329.63 492.243 329.21 500C328.938 505.021 330.973 510.7 337 509.702C345.718 508.259 349.402 496.551 349.909 489.001C350.249 483.936 348.297 478.293 341.996 479.747z"/>
<path style="fill:#e559f8; stroke:none;" d="M261.019 484.773C254.154 487.037 249.587 498.245 250.189 505C250.564 509.211 252.819 514.541 257.986 513.428C265.769 511.752 270.079 499.876 269.995 493C269.928 487.542 267.268 482.712 261.019 484.773z"/>
<path style="fill:#c2c3c8; stroke:none;" d="M1514 504L1514 518L1516 518L1516 504L1514 504z"/>
<path style="fill:#a9aaaf; stroke:none;" d="M1403 506L1401 508L1401 509L1407 518L1407 517C1404.84 514.128 1404.84 511.872 1407 509L1407 508L1405 506L1403 506z"/>
<path style="fill:#b4b5b9; stroke:none;" d="M1362.31 509.086C1358.09 511.471 1360.7 519.92 1365.69 516.928C1369.7 514.518 1366.98 506.452 1362.31 509.086z"/>
<path style="fill:#abaab0; stroke:none;" d="M1370 508C1370 514.179 1370.01 517.77 1377 518L1377 508L1376 508L1376 516L1371 516L1370 508z"/>
<path style="fill:#cfcdd2; stroke:none;" d="M1371 508L1371 516L1372 516L1371 508z"/>
<path style="fill:#d4d0d1; stroke:none;" d="M1375 508L1375 516L1376 516L1375 508z"/>
<path style="fill:#adacb1; stroke:none;" d="M1391 517L1391 516L1385 516L1385 513L1391 513C1388.81 499.888 1376.03 520.976 1391 517z"/>
<path style="fill:#b2b1b6; stroke:none;" d="M1393 508L1393 518L1395 518L1395 510L1399 510L1399 518L1401 518C1400.98 511.181 1400.37 508.088 1393 508z"/>
<path style="fill:#c8c9cd; stroke:none;" d="M1408 508L1408 518L1409 518L1408 508z"/>
<path style="fill:#a8a7ad; stroke:none;" d="M1409 508L1409 518L1410 518L1413 508L1409 508z"/>
<path style="fill:#b3b3b5; stroke:none;" d="M1422 517L1422 516L1416 516L1416 514L1422 514C1420.83 499.302 1406.47 521.1 1422 517z"/>
<path style="fill:#acabb1; stroke:none;" d="M1435 517L1435 516L1429 513L1435 513C1432.83 499.984 1420.35 520.898 1435 517z"/>
<path style="fill:#b4b3b9; stroke:none;" d="M1437 508L1437 518L1439 518L1439 510L1443 510L1443 518L1445 518L1445 510L1449 510L1449 518L1451 518C1450.99 507.337 1446.47 508.117 1437 508z"/>
<path style="fill:#b3b2b7; stroke:none;" d="M1457 508C1457.01 514.92 1457.48 517.911 1465 518L1465 510L1466 510L1466 518L1468 518L1468 510L1472 510L1472 518L1474 518C1474.13 514.122 1474.5 511.928 1478 510L1478 518L1480 518C1479.99 505.645 1472.95 508.724 1463 508L1463 516L1458 516L1457 508z"/>
<path style="fill:#d5d4da; stroke:none;" d="M1458 508L1458 516L1459 516L1458 508z"/>
<path style="fill:#cac9cf; stroke:none;" d="M1462 508L1462 516L1463 516L1462 508z"/>
<path style="fill:#afaeb4; stroke:none;" d="M1482 511L1487 509C1483.7 514.361 1479.5 517.198 1489 518C1489 513.801 1487.01 503.299 1482 511z"/>
<path style="fill:#b5b8bd; stroke:none;" d="M1496 513L1501 514L1501 516L1500 517L1495 515C1498.54 518.607 1501.89 518.087 1503 513L1498 510L1503 511C1499.68 507.646 1496.8 508.215 1496 513z"/>
<path style="fill:#aaadb4; stroke:none;" d="M1505 511L1510 510L1504 517L1512 518C1512 513.801 1510.01 503.299 1505 511z"/>
<path style="fill:#acacb4; stroke:none;" d="M1519 511L1524 510L1524 512C1515.52 512.976 1519.55 517.844 1526 518C1526 513.888 1523.96 503.434 1519 511z"/>
<path style="fill:#f7f8fd; stroke:none;" d="M1362.63 511.082C1360.38 512.774 1362.93 516.727 1365.28 514.918C1367.64 513.101 1365.1 509.222 1362.63 511.082z"/>
<path style="fill:#d7dce2; stroke:none;" d="M1377 510L1377 518L1378 518L1377 510z"/>
<path style="fill:#f3f3fb; stroke:none;" d="M1385 511L1385 512L1390 512L1390 510L1385 511z"/>
<path style="fill:#fdfcff; stroke:none;" d="M1416 510L1416 512L1420 512L1420 510L1416 510z"/>
<path style="fill:#f8f7fd; stroke:none;" d="M1429 511L1429 512L1434 512L1434 510L1429 511z"/>
<path style="fill:#d7d8dd; stroke:none;" d="M1468 510L1468 518L1469 518L1468 510z"/>
<path style="fill:#a8a8a8; stroke:none;" d="M1243 511L1243 512L1339 512L1310 511L1243 511z"/>
<path style="fill:#d0cfd5; stroke:none;" d="M1435 511L1429 515C1431.55 514.342 1436.27 514.372 1435 511z"/>
<path style="fill:#a8a8a8; stroke:none;" d="M1547 511L1547 512L1643 512L1614 511L1547 511z"/>
<path style="fill:#cecfd4; stroke:none;" d="M1385 516L1386 516L1391 514C1388.24 512.409 1385.71 512.668 1385 516z"/>
<path style="fill:#f4f3f8; stroke:none;" d="M1483 516L1487 513L1483 516z"/>
<path style="fill:#f7f6fb; stroke:none;" d="M1506 516L1510 513L1506 516z"/>
<path style="fill:#f8fbff; stroke:none;" d="M1520 516L1524 513L1520 516z"/>
<path style="fill:#9472fd; stroke:none;" d="M414 581L415 597L417 597C419.32 593.703 422.952 590.81 424.4 587C426.06 582.636 424.717 577.127 427.603 573.188C433.773 564.764 442.708 564.428 443 552L427 557C427 552.265 428.455 544.616 426.258 540.318C423.247 534.43 416.483 541.616 415.148 545.001C412.759 551.062 416.266 559.269 412.972 564.776C409.921 569.879 402.34 570.48 399.318 576.043C395.876 582.379 399.478 587.067 406 583.985C408.676 582.72 411.119 581.691 414 581z"/>
<path style="fill:#a8a8a8; stroke:none;" d="M1250 562L1250 563L1636 563L1602 562L1523 562L1250 562z"/>
<path style="fill:#c4c4c4; stroke:none;" d="M1245 567L1250 564L1245 567z"/>
<path style="fill:#ffffff; stroke:none;" d="M1250.02 563.742C1244.83 565.805 1244.06 571.076 1244 576C1243.86 587.972 1243.7 600.032 1244.01 612C1244.15 617.037 1245.58 622.056 1251 623.566C1259.58 625.953 1271.12 624 1280 624L1342 624L1542 624L1611 624C1618.34 624 1631.64 626.538 1637.87 622.106C1642.47 618.83 1642 613.011 1642 608C1642 596.46 1642.91 584.496 1641.91 573C1641.52 568.606 1639.51 564.689 1635 563.434C1626.7 561.126 1615.59 563 1607 563L1548 563L1355 563L1282 563C1272.79 563 1258.62 560.326 1250.02 563.742z"/>
<path style="fill:#cdcdcd; stroke:none;" d="M1636 563L1636 564L1643 570C1641.66 566.096 1640 564.149 1636 563z"/>
<path style="fill:#a8a8a8; stroke:none;" d="M1244 567C1239.65 581.707 1243 601.653 1243 617L1244 617L1244 582L1244 567M1642 570L1642 617L1643 617C1643 603.735 1647.11 582.176 1642 570z"/>
<path style="fill:#848484; stroke:none;" d="M1352 587L1355 584L1352 587z"/>
<path style="fill:#c9c8c3; stroke:none;" d="M1278.33 585.667L1278.67 586.333L1278.33 585.667z"/>
<path style="fill:#797a74; stroke:none;" d="M1279.33 585.667L1279.67 586.333L1279.33 585.667z"/>
<path style="fill:#7d7d73; stroke:none;" d="M1295.33 585.667L1295.67 586.333L1295.33 585.667z"/>
<path style="fill:#adadad; stroke:none;" d="M1366 585L1363 590L1363 591C1366.11 589.752 1367.26 588.259 1366 585z"/>
<path style="fill:#717a81; stroke:none;" d="M1367 585L1365 591C1368.25 597.994 1359.28 597.76 1364 589C1355.81 592.294 1361.57 599.452 1368 600L1367 585z"/>
<path style="fill:#d9dee4; stroke:none;" d="M1368 585L1368 600L1369 600L1368 585z"/>
<path style="fill:#8a8a8a; stroke:none;" d="M1371 585L1371 587L1373 587L1373 585L1371 585z"/>
<path style="fill:#88837d; stroke:none;" d="M1410 585L1410 589C1399.26 589.819 1403.29 599.328 1412 600L1412 585L1410 585z"/>
<path style="fill:#797886; stroke:none;" d="M1452 585L1452 600L1453 600L1452 585z"/>
<path style="fill:#9998a8; stroke:none;" d="M1453 585L1453 600L1454 600L1453 585z"/>
<path style="fill:#dedad1; stroke:none;" d="M1265 586L1265 600L1266 600L1265 586z"/>
<path style="fill:#757a7d; stroke:none;" d="M1266 586L1266 600C1278.43 599.699 1278.43 586.301 1266 586z"/>
<path style="fill:#848490; stroke:none;" d="M1300 586L1298 589L1298 590L1304 600C1302.55 596.217 1301.4 593.452 1304 590L1304 589L1300 586z"/>
<path style="fill:#a9b3bc; stroke:none;" d="M1267 588L1267 598L1268 598L1267 588z"/>
<path style="fill:#f9ffff; stroke:none;" d="M1268 588L1268 598C1275.55 597.398 1275.55 588.602 1268 588z"/>
<path style="fill:#c4bfb9; stroke:none;" d="M1278 589L1278 600L1279 600L1278 589z"/>
<path style="fill:#7a7770; stroke:none;" d="M1279 589L1279 600L1280 600L1279 589z"/>
<path style="fill:#c8d0d2; stroke:none;" d="M1280 589L1280 600L1281 600L1280 589z"/>
<path style="fill:#807d86; stroke:none;" d="M1290 599L1284 601C1290.63 611.184 1292 592.833 1292 589C1289.67 589.167 1286.49 588.759 1284.73 590.614C1280.46 595.112 1285.05 600.118 1290 599z"/>
<path style="fill:#c7c0b8; stroke:none;" d="M1294 589L1294 600L1295 600L1294 589z"/>
<path style="fill:#807571; stroke:none;" d="M1295 589L1295 600L1296 600L1295 589z"/>
<path style="fill:#cdcec9; stroke:none;" d="M1296 589L1296 600L1297 600L1296 589z"/>
<path style="fill:#79777a; stroke:none;" d="M1314 597C1310.25 598.04 1308.94 597.351 1307 594L1314 594C1313.22 589.487 1307.64 587.389 1306.34 593.058C1305.08 598.522 1310.89 601.769 1314 597z"/>
<path style="fill:#7c7a7b; stroke:none;" d="M1324.22 589.801C1319.17 591.669 1321.27 601.055 1326.87 599.288C1332.05 597.651 1329.95 587.685 1324.22 589.801z"/>
<path style="fill:#767a79; stroke:none;" d="M1346 596C1338.48 598.653 1338.67 590.063 1346 593C1344.14 587.712 1337.79 589.299 1338.21 594.985C1338.6 600.395 1344.38 600.617 1346 596z"/>
<path style="fill:#7e7e7c; stroke:none;" d="M1350.32 590.047C1345.74 592.867 1349.42 602.225 1354.69 598.953C1359.33 596.066 1355.71 586.724 1350.32 590.047z"/>
<path style="fill:#898d90; stroke:none;" d="M1371 589L1371 600L1373 600L1373 589L1371 589z"/>
<path style="fill:#7a7a7c; stroke:none;" d="M1383 599L1376 601C1383.27 611.25 1384 592.99 1384 589C1375.11 589.702 1373.45 600.572 1383 599z"/>
<path style="fill:#c6cccc; stroke:none;" d="M1384 589L1384 601L1385 601L1384 589z"/>
<path style="fill:#7d7e79; stroke:none;" d="M1389.31 590.047C1384.72 592.9 1388.21 602.209 1393.57 598.802C1398.09 595.922 1394.57 586.782 1389.31 590.047z"/>
<path style="fill:#7d7c77; stroke:none;" d="M1415 592L1421 593C1411.3 593.74 1415.93 599.455 1423 600C1422.09 596.176 1420.62 584.074 1415 592z"/>
<path style="fill:#7a7a7a; stroke:none;" d="M1437 596L1437 598L1430 597C1435.54 602.634 1440.61 595.791 1432 593L1432 591L1438 592C1434.18 586.122 1427.98 593.565 1437 596z"/>
<path style="fill:#817f80; stroke:none;" d="M1441 592L1447 593C1437.93 594.044 1442.37 599.489 1449 600C1449 595.517 1446.62 584.082 1441 592z"/>
<path style="fill:#757678; stroke:none;" d="M1457 592L1463 593C1453.93 594.044 1458.37 599.489 1465 600C1465 595.517 1462.62 584.082 1457 592z"/>
<path style="fill:#c0c1bc; stroke:none;" d="M1341.67 590.333L1342.33 590.667L1341.67 590.333z"/>
<path style="fill:#b5b5b5; stroke:none;" d="M1433 590L1433 591L1436 591L1433 590z"/>
<path style="fill:#c1c1bf; stroke:none;" d="M1444.67 590.333L1445.33 590.667L1444.67 590.333z"/>
<path style="fill:#b8b8b8; stroke:none;" d="M1460.67 590.333L1461.33 590.667L1460.67 590.333z"/>
<path style="fill:#f3fdff; stroke:none;" d="M1285 591C1285.14 595.176 1285.64 597.272 1290 598L1290 591L1285 591z"/>
<path style="fill:#fffffd; stroke:none;" d="M1307 592L1307 593L1312 593L1312 591L1307 592z"/>
<path style="fill:#d7d9d8; stroke:none;" d="M1314 591L1307 596L1315 595L1314 591z"/>
<path style="fill:#fffeff; stroke:none;" d="M1328 598L1328 591C1322.29 591.954 1322.29 597.046 1328 598z"/>
<path style="fill:#fbfdfa; stroke:none;" d="M1350 598L1355 598L1355 591C1350.64 591.728 1350.14 593.824 1350 598z"/>
<path style="fill:#fefcff; stroke:none;" d="M1366 598L1366 591C1360.29 591.954 1360.29 597.046 1366 598z"/>
<path style="fill:#f8ffff; stroke:none;" d="M1378 591L1378 598L1382 598L1382 591L1378 591z"/>
<path style="fill:#cfc7ba; stroke:none;" d="M1382 591L1382 597L1383 597L1382 591z"/>
<path style="fill:#fffcf9; stroke:none;" d="M1389 591L1389 598C1394.71 597.046 1394.71 591.954 1389 591z"/>
<path style="fill:#f7fdfd; stroke:none;" d="M1410 598L1410 591C1404.29 591.954 1404.29 597.046 1410 598z"/>
<path style="fill:#979a9f; stroke:none;" d="M1422 591L1422 599L1423 599L1422 591z"/>
<path style="fill:#b2b1ad; stroke:none;" d="M1430.33 591.667L1430.67 592.333L1430.33 591.667z"/>
<path style="fill:#dad5cf; stroke:none;" d="M1328 592L1328 597L1329 597L1328 592z"/>
<path style="fill:#b5b8bd; stroke:none;" d="M1330 592L1330 597L1331 597L1330 592z"/>
<path style="fill:#c9c6bf; stroke:none;" d="M1337 592L1337 597L1338 597L1337 592z"/>
<path style="fill:#bec5cd; stroke:none;" d="M1339 592L1339 597L1340 597L1339 592z"/>
<path style="fill:#c3c3c1; stroke:none;" d="M1357 592L1357 596L1358 596L1357 592z"/>
<path style="fill:#aeafb1; stroke:none;" d="M1359 592L1359 597L1360 597L1359 592z"/>
<path style="fill:#baaca3; stroke:none;" d="M1366 592L1366 597L1367 597L1366 592z"/>
<path style="fill:#cac7c0; stroke:none;" d="M1375 592L1375 597L1376 597L1375 592z"/>
<path style="fill:#c9c9d1; stroke:none;" d="M1377 592L1377 597L1378 597L1377 592z"/>
<path style="fill:#ccd0d3; stroke:none;" d="M1388 592L1388 597L1389 597L1388 592z"/>
<path style="fill:#c2c3b5; stroke:none;" d="M1305 593L1305 597L1306 597L1305 593z"/>
<path style="fill:#babab8; stroke:none;" d="M1355 593L1355 596L1356 596L1355 593z"/>
<path style="fill:#fafcfb; stroke:none;" d="M1416 598L1421 594L1416 598z"/>
<path style="fill:#fefdf9; stroke:none;" d="M1443 598L1447 598L1447 594L1443 598z"/>
<path style="fill:#fdfdfb; stroke:none;" d="M1458 598L1463 594L1458 598z"/>
<path style="fill:#c9c8c6; stroke:none;" d="M1442 595L1442 598L1443 598L1442 595z"/>
<path style="fill:#b4b4ac; stroke:none;" d="M1456 595L1456 598L1457 598L1456 595z"/>
<path style="fill:#b8b9bb; stroke:none;" d="M1436.33 596.667L1436.67 597.333L1436.33 596.667z"/>
<path style="fill:#bcbcbc; stroke:none;" d="M1309 598L1309 599L1312 599L1309 598z"/>
<path style="fill:#a7acaf; stroke:none;" d="M1379.67 598.333L1380.33 598.667L1379.67 598.333z"/>
<path style="fill:#b4b5b0; stroke:none;" d="M1390.67 598.333L1391.33 598.667L1390.67 598.333z"/>
<path style="fill:#c0bcbb; stroke:none;" d="M1381 599L1383 601L1383 599L1381 599z"/>
<path style="fill:#cccccc; stroke:none;" d="M1243 617C1244.34 620.904 1246 622.851 1250 624L1250 623L1243 617z"/>
<path style="fill:#cdcdcd; stroke:none;" d="M1641 617L1635 625C1639.34 623.508 1641.32 621.232 1643 617L1641 617z"/>
<path style="fill:#a8a8a8; stroke:none;" d="M1250 624L1250 625L1635 625L1601 624L1522 624L1250 624z"/>
<path style="fill:#7f66c4; stroke:none;" d="M1250 645L1250 646L1510 646L1591 646L1639 648C1633 642.382 1619.78 645 1612 645L1539 645L1250 645z"/>
<path style="fill:#835afe; stroke:none;" d="M1640 647C1587.53 647.498 1534.61 646 1482 646L1374 646L1285 646C1274.75 646 1257.56 642.679 1248.11 646.742C1243.02 648.931 1244 655.484 1244 660L1244 693C1244 697.78 1243.66 703.332 1249.02 705.397C1256.1 708.124 1267.46 706 1275 706L1335 706L1540 706L1609 706C1617.15 706 1630.36 708.523 1637.89 705.258C1643.02 703.033 1641.99 695.562 1642 691C1642.02 678.174 1645.61 658.657 1640 647z"/>
<path style="fill:#7e68ba; stroke:none;" d="M1243 652L1243 699L1244 699C1244 685.735 1248.11 664.176 1243 652z"/>
<path style="fill:#7f67bd; stroke:none;" d="M1642 652L1641 701L1642 701L1643 667L1642 652z"/>
<path style="fill:#8160e2; stroke:none;" d="M1403 670L1386 671L1386 675L1392 675L1392 677L1386 677L1386 681L1393 681L1393 683L1382 683L1382 684L1396 684L1394 672C1400.23 672.074 1407.6 678.073 1400 683L1400 684L1415 684L1415 683L1411 683L1411 672L1418 672L1415 682L1416 682C1416.65 680.04 1417 679.446 1417 682L1418 682L1424 674L1419 675L1425 672C1420.15 669.962 1406.35 665.414 1403 670z"/>
<path style="fill:#7d63be; stroke:none;" d="M1382 668L1382 669L1392 669L1382 668z"/>
<path style="fill:#f4e4ff; stroke:none;" d="M1489 668L1489 683L1492 683L1492 668L1489 668z"/>
<path style="fill:#a49ae1; stroke:none;" d="M1382 669L1382 683L1383 683L1382 669z"/>
<path style="fill:#f7f5ff; stroke:none;" d="M1383 669L1383 683L1393 683L1393 681L1386 681L1386 677L1392 677L1392 675L1386 675L1386 671L1392 671L1392 669L1383 669z"/>
<path style="fill:#fdf8ff; stroke:none;" d="M1406 669L1404 672L1404 673L1404 674L1406 683L1410 683L1410 674L1410 673L1410 672L1406 669z"/>
<path style="fill:#fde9ff; stroke:none;" d="M1394 672L1394 683L1397 683L1397 674L1400 674L1400 683L1403 683C1403 675.054 1402.57 672.03 1394 672z"/>
<path style="fill:#b4adf3; stroke:none;" d="M1411 672L1411 683L1412 683L1411 672z"/>
<path style="fill:#fbedff; stroke:none;" d="M1412 672L1412 683L1414 683L1418 672L1412 672z"/>
<path style="fill:#fff0ff; stroke:none;" d="M1419 675L1424 674C1420.54 677.044 1418.44 678.002 1419 683L1427 683C1427 678.534 1424.62 666.36 1419 675z"/>
<path style="fill:#826fa6; stroke:none;" d="M1425 672L1425 673L1427 682L1429 682L1429 672L1425 672z"/>
<path style="fill:#fce5ff; stroke:none;" d="M1429 672L1429 683L1432 683L1435 672L1429 672z"/>
<path style="fill:#fce9ff; stroke:none;" d="M1441 672L1441 683L1444 683C1444.05 678.839 1444.17 676.112 1448 674L1448 683L1450 683C1450 675.054 1449.57 672.03 1441 672z"/>
<path style="fill:#fff3ff; stroke:none;" d="M1452 675L1458 674C1451.51 679.302 1451.3 682.966 1461 683C1461 677.906 1458.18 666.265 1452 675z"/>
<path style="fill:#faefff; stroke:none;" d="M1474 681L1468 679C1469.4 682.489 1476.9 684.651 1476.08 679.165C1475.76 677 1472.48 675.376 1471 674L1476 675C1474.32 672.416 1467.36 670.8 1468.75 675.835C1469.36 678.035 1472.42 679.528 1474 681z"/>
<path style="fill:#fcf2ff; stroke:none;" d="M1478 675L1484 674C1476.9 680.244 1478.59 682.993 1488 683C1486.66 677.356 1485.48 667.371 1478 675z"/>
<path style="fill:#faf1ff; stroke:none;" d="M1494 675L1500 674C1493.76 679.483 1493.6 682.915 1503 683C1503 676.928 1501.33 667.525 1494 675z"/>
<path style="fill:#7d6cbc; stroke:none;" d="M1440 673L1440 682L1441 682L1440 673z"/>
<path style="fill:#7e66c4; stroke:none;" d="M1397 674L1400 683L1400 674L1397 674z"/>
<path style="fill:#ada9f5; stroke:none;" d="M1405 674L1405 682L1406 682L1405 674z"/>
<path style="fill:#7d6ade; stroke:none;" d="M1445 674C1443.34 679.627 1444.13 683.198 1450 685L1447 683L1447 674L1445 674z"/>
<path style="fill:#cbc4ff; stroke:none;" d="M1447 674L1447 683L1448 683L1447 674z"/>
<path style="fill:#7d6ea5; stroke:none;" d="M1452 675L1452 676L1458 674L1452 675z"/>
<path style="fill:#7f69b1; stroke:none;" d="M1471 674L1474 676L1471 674z"/>
<path style="fill:#cbaeff; stroke:none;" d="M1476 674L1474 675L1474 676L1476 674z"/>
<path style="fill:#987aba; stroke:none;" d="M1487 674L1487 682L1489 682L1489 674L1487 674z"/>
<path style="fill:#d0aaff; stroke:none;" d="M1414 675L1414 683L1415 683L1414 675z"/>
<path style="fill:#7e6db4; stroke:none;" d="M1421 678L1421 681L1424 681L1424 678L1421 678z"/>
<path style="fill:#806eba; stroke:none;" d="M1455 681L1458 678L1455 681z"/>
<path style="fill:#8570b1; stroke:none;" d="M1481 681L1484 678L1481 681z"/>
<path style="fill:#816db5; stroke:none;" d="M1497 681L1500 678L1497 681z"/>
<path style="fill:#fef4ff; stroke:none;" d="M158.228 680.762C153.033 682.948 157.154 689.215 161.852 687.377C167.109 685.321 162.987 678.759 158.228 680.762z"/>
<path style="fill:#fff1ff; stroke:none;" d="M637.449 681.032C632.954 684.141 638.605 689.659 642.678 686.968C647.326 683.897 641.473 678.251 637.449 681.032z"/>
<path style="fill:#bdaeff; stroke:none;" d="M1418.33 680.667L1418.67 681.333L1418.33 680.667z"/>
<path style="fill:#ae98e3; stroke:none;" d="M263 682L263 683L271 683L263 682z"/>
<path style="fill:#b09aec; stroke:none;" d="M358 682L358 683L366 683L358 682z"/>
<path style="fill:#aeaeec; stroke:none;" d="M262 683L262 716L263 716L262 683z"/>
<path style="fill:#fffdff; stroke:none;" d="M263 683L263 716L270 716L270 683L263 683z"/>
<path style="fill:#ddc2ff; stroke:none;" d="M270 683L270 716L271 716L270 683z"/>
<path style="fill:#fefcff; stroke:none;" d="M358 683L358 693C355.603 691.721 353.765 691.073 350.998 691.022C330.666 690.649 341.487 726.684 357 714L366 716L366 683L358 683z"/>
<path style="fill:#ccaaff; stroke:none;" d="M366 683L366 716L367 716L366 683z"/>
<path style="fill:#fffaff; stroke:none;" d="M132 705C126.852 705.004 121.492 708.792 117 708.339C108.989 707.531 108.047 695.279 115.044 692.284C119.054 690.567 127.131 694.996 132 695C128.498 677.653 101.922 682.107 101.144 699C100.311 717.097 128.257 723.548 132 705z"/>
<path style="fill:#7d66da; stroke:none;" d="M367 684L367 716L357 714C351.853 716.925 348.326 716.036 343 714C346.817 721.702 353.652 715.257 359 720L370 717L369 711L370 711C375.621 721.243 385.777 717.102 395 717L395 716L397 701L396 701C393.803 708.239 384.158 706 378 706C381.993 712.14 388.831 707.022 395 707C391.09 716.153 379.289 720.289 372.703 710.956C369.398 706.273 370.335 701.27 371 696L370 696L369 699L368 699L367 684z"/>
<path style="fill:#fefbff; stroke:none;" d="M440 721C434.74 710.554 443.676 702.425 438.312 692.015C428.104 672.207 397.071 691.856 410.514 709.957C414.883 715.84 420.232 714.365 426 717.008C431.293 719.435 434.009 720.995 440 721z"/>
<path style="fill:#fffdff; stroke:none;" d="M449 698C441.069 702.067 441.523 712.488 450.004 715.852C455.541 718.048 459.597 715.268 465 715.064C472.121 714.795 479.75 716 487 716C488.68 707.942 499.32 707.942 501 716L510 716C507.013 703.087 504.04 684.002 489 684L478 715C471.192 710.171 471.893 707.266 474 700L465 703L455 691L467 692C464.253 678.511 443.486 682.843 449 698z"/>
<path style="fill:#7d65d7; stroke:none;" d="M173 692L189 692C184.662 687.45 176.861 686.18 173 692z"/>
<path style="fill:#895fdf; stroke:none;" d="M522 688L520 714C528.185 716.812 549.823 724.842 550 710L554 712C549.489 694.951 559.492 688.769 575 693C569.945 687.69 562.693 689.397 556 689L553 696C547.602 690.825 544.403 685.966 536 691L540 693L548 690L548 716L540 714L539 714C521.3 723.13 513.782 693.211 534 690L534 689L522 688z"/>
<path style="fill:#7c64d2; stroke:none;" d="M275 696C282.013 691.268 284.942 689.723 293 693C290.697 685.125 276.245 688.774 275 696z"/>
<path style="fill:#b299ec; stroke:none;" d="M137 690L137 691L145 691L137 690z"/>
<path style="fill:#fffaff; stroke:none;" d="M145 694C144.146 690.013 140.511 691 137 691L137 716L145 716C145 708.626 143.474 699.725 153 699L153 690L145 694z"/>
<path style="fill:#ab98da; stroke:none;" d="M156 690L156 691L164 691L156 690z"/>
<path style="fill:#d8c6ff; stroke:none;" d="M178 690L178 691L184 691L178 690z"/>
<path style="fill:#fdf9ff; stroke:none;" d="M220 708L220 710L214 711L214 708L205 708C207.735 714.908 216.596 719.14 223.671 714.821C229.008 711.563 227.917 705.114 222.956 702.278C220.248 700.73 216.952 699.961 214 699L214 697L215 696L227 699C223.148 680.08 197.172 696.837 210.189 704.442C213.115 706.151 216.793 706.956 220 708z"/>
<path style="fill:#cfbdff; stroke:none;" d="M239 690L239 691L244 691L239 690z"/>
<path style="fill:#ac96e1; stroke:none;" d="M249 690L249 691L258 691L249 690z"/>
<path style="fill:#cfb9ff; stroke:none;" d="M283 690L283 691L288 691L283 690z"/>
<path style="fill:#b09ae3; stroke:none;" d="M293 690L293 691L301 691L293 690z"/>
<path style="fill:#d4c2ff; stroke:none;" d="M312 690L312 691L319 691L312 690z"/>
<path style="fill:#d3bdff; stroke:none;" d="M348 690L348 691L353 691L348 690z"/>
<path style="fill:#d3bfff; stroke:none;" d="M380 690L380 691L386 691L380 690z"/>
<path style="fill:#d0befa; stroke:none;" d="M530 690L530 691L535 691L530 690z"/>
<path style="fill:#b19de5; stroke:none;" d="M540 690L540 691L548 691L540 690z"/>
<path style="fill:#d5c3ff; stroke:none;" d="M562 690L562 691L568 691L562 690z"/>
<path style="fill:#af99ee; stroke:none;" d="M606 690L606 691L614 691L606 690z"/>
<path style="fill:#af9ae9; stroke:none;" d="M625 690L625 691L634 692L625 690z"/>
<path style="fill:#ab99d3; stroke:none;" d="M636 690L636 691L644 691L636 690z"/>
<path style="fill:#ad9de6; stroke:none;" d="M647 693L648 693L656 691C652.945 689.24 647.861 688.983 647 693z"/>
<path style="fill:#b598e8; stroke:none;" d="M666 690L666 691L674 693C675.541 688.911 668.616 690 666 690z"/>
<path style="fill:#d2beff; stroke:none;" d="M687 690L687 691L692 691L687 690z"/>
<path style="fill:#fafcff; stroke:none;" d="M156 691L156 716L164 716L164 691L156 691z"/>
<path style="fill:#a874e3; stroke:none;" d="M164 691L164 716L165 716L164 691z"/>
<path style="fill:#fffcff; stroke:none;" d="M192 708C185.797 708.021 179.678 711.276 176 705L193 705C192.988 700.822 193.187 696.468 189.772 693.434C182.639 687.097 169.436 691.648 168.19 701C166.195 715.969 188.846 722.915 192 708z"/>
<path style="fill:#fefaff; stroke:none;" d="M248 714L249 714L257 716L257 691L248 693C226.855 676.98 225.592 729.309 248 714z"/>
<path style="fill:#c8b0fa; stroke:none;" d="M257 691L257 716L258 716L257 691z"/>
<path style="fill:#fffbff; stroke:none;" d="M292 714L293 714L301 716L301 691L293 693C290.645 691.867 288.654 691.145 285.998 691.047C265.039 690.273 275.493 726.267 292 714z"/>
<path style="fill:#fcffff; stroke:none;" d="M319 710L305 708C310.205 726.477 336.711 709.04 321.956 702.108C319.129 700.78 315.967 699.965 313 699L313 697L327 699C324.187 689.614 305.023 686.702 306.192 698.996C306.887 706.303 315.822 704.801 319 710z"/>
<path style="fill:#fffaff; stroke:none;" d="M394 708C387.797 708.021 381.678 711.276 378 705L396 705C395.297 689.831 372.308 684.24 370.193 701C368.315 715.883 390.359 722.953 394 708z"/>
<path style="fill:#8a64dd; stroke:none;" d="M431 703C416.961 713.429 412.903 690.222 430 695C424.675 686.972 414.788 693.477 416.232 701.999C417.719 710.773 428.246 710.659 431 703z"/>
<path style="fill:#fffcff; stroke:none;" d="M539 714L540 714L548 716L548 691L540 693C537.645 691.867 535.654 691.145 532.998 691.047C512.136 690.276 522.362 726.365 539 714z"/>
<path style="fill:#fcfbff; stroke:none;" d="M559.015 691.742C543.367 697.904 555.328 721.328 570.996 715.258C586.781 709.143 575.19 685.374 559.015 691.742z"/>
<path style="fill:#fdfbff; stroke:none;" d="M606 691L614 716C627.781 716 631.103 703.843 633 691L624 691L620 707L619 707L615 691L606 691z"/>
<path style="fill:#fcffff; stroke:none;" d="M636 691L636 716L644 716L644 691L636 691z"/>
<path style="fill:#a775e4; stroke:none;" d="M644 691L644 716L645 716L644 691z"/>
<path style="fill:#fbfcff; stroke:none;" d="M648 691C648.819 696.547 652.006 712.758 657.418 715.397C668.695 720.894 673.365 698.277 674 691C663.799 691.036 664.565 697.957 661 706C658.239 697.511 658.138 691.036 648 691z"/>
<path style="fill:#fffcff; stroke:none;" d="M684.004 691.653C667.741 696.823 678.632 721.595 694.996 715.258C711.443 708.889 699.963 686.578 684.004 691.653z"/>
<path style="fill:#af9ae9; stroke:none;" d="M132 693L124 695L124 696C126.616 696 133.541 697.089 132 693z"/>
<path style="fill:#835bf9; stroke:none;" d="M420.939 693.826C413.867 696.885 418.681 709.797 425.833 707.214C435.932 703.566 430.692 689.608 420.939 693.826z"/>
<path style="fill:#805ce2; stroke:none;" d="M494 694L491 704L497 704L494 694z"/>
<path style="fill:#8165dc; stroke:none;" d="M700 694C701.291 697.881 703.537 701.805 702.333 706C698.827 718.207 685.092 718.685 678 710L677 710C681.689 732.641 719.329 705.825 700 694z"/>
<path style="fill:#bfaef4; stroke:none;" d="M315.667 696.333L316.333 696.667L315.667 696.333z"/>
<path style="fill:#cfc2ff; stroke:none;" d="M407 696L407 703L408 703L407 696z"/>
<path style="fill:#7d69be; stroke:none;" d="M582 696L582 697L602 697L582 696z"/>
<path style="fill:#7765d3; stroke:none;" d="M100 697C100.003 701.914 99.5114 707.022 104 710L100 697z"/>
<path style="fill:#7a61d6; stroke:none;" d="M176 701L185 701C182.518 696.502 178.482 696.502 176 701z"/>
<path style="fill:#816ad4; stroke:none;" d="M243.054 697.971C237.049 699.312 238.379 709.825 244.946 708.623C251.146 707.489 249.308 696.573 243.054 697.971z"/>
<path style="fill:#c7b7f5; stroke:none;" d="M285 697L285 698L289 698L285 697z"/>
<path style="fill:#7d64c9; stroke:none;" d="M313 697L325 703L324 699L313 697z"/>
<path style="fill:#b8abf0; stroke:none;" d="M352 697L352 698L355 698L352 697z"/>
<path style="fill:#7d64b8; stroke:none;" d="M378 701L387 701C384.98 695.976 380.442 696.572 378 701z"/>
<path style="fill:#835fd9; stroke:none;" d="M537 709L537 708C529.657 705.867 532.609 701.015 539 701C533.457 691.553 523.868 707.998 537 709z"/>
<path style="fill:#b9ace4; stroke:none;" d="M563 697L563 698L567 698L563 697z"/>
<path style="fill:#d2c3fe; stroke:none;" d="M581 697L581 704L602 704L602 703L582 703L581 697z"/>
<path style="fill:#fffbff; stroke:none;" d="M582 697L582 703L602 703L602 697L582 697z"/>
<path style="fill:#8768cf; stroke:none;" d="M692 709L692 708C685.233 706.895 685.233 700.105 692 699C685.394 694.486 681.012 708.639 692 709z"/>
<path style="fill:#7a62d4; stroke:none;" d="M285 698L285 699C292.611 700.587 290.906 707.032 284 708C293.149 711.797 296.059 698.362 285 698z"/>
<path style="fill:#8162d9; stroke:none;" d="M350.318 699.032C345.128 702.377 349.995 711.632 355.682 707.968C360.872 704.623 356.005 695.368 350.318 699.032z"/>
<path style="fill:#7866ca; stroke:none;" d="M561 701C569.535 698.517 568.886 708.738 561 706C570.657 720.879 570.657 686.121 561 701z"/>
<path style="fill:#8359fb; stroke:none;" d="M246 707C248.224 693.279 235.591 705.193 246 707z"/>
<path style="fill:#8559ff; stroke:none;" d="M283 699C283.06 715.891 298.259 699.37 283 699z"/>
<path style="fill:#cfc1ff; stroke:none;" d="M467 699L467 700L475 701L467 699z"/>
<path style="fill:#815bff; stroke:none;" d="M564.039 699.801C559.062 700.71 560.302 707.689 564.95 707.404C569.302 707.137 569.297 698.84 564.039 699.801z"/>
<path style="fill:#8559f6; stroke:none;" d="M687.742 700.032C683.962 703.033 688.094 710.333 692.4 706.968C696.201 703.998 692.021 696.637 687.742 700.032z"/>
<path style="fill:#d7b9ff; stroke:none;" d="M193 700L193 705L194 705L193 700z"/>
<path style="fill:#b1abeb; stroke:none;" d="M230 700L230 707L231 707L230 700z"/>
<path style="fill:#b6abf7; stroke:none;" d="M339 700L339 707L340 707L339 700z"/>
<path style="fill:#7d58fd; stroke:none;" d="M349 706C362.604 707.564 350.263 695.031 349 706z"/>
<path style="fill:#caadf0; stroke:none;" d="M529 700L529 706L530 706L529 700z"/>
<path style="fill:#8459ff; stroke:none;" d="M539 708C541.566 693.376 523.197 707.485 539 708z"/>
<path style="fill:#c0abee; stroke:none;" d="M282 701L282 705L283 705L282 701z"/>
<path style="fill:#bfa6ff; stroke:none;" d="M578 701L578 706L579 706L578 701z"/>
<path style="fill:#c5acfd; stroke:none;" d="M684 701L684 705L685 705L684 701z"/>
<path style="fill:#7565c8; stroke:none;" d="M306 702L306 706L306 707L319 710L306 702z"/>
<path style="fill:#8468cf; stroke:none;" d="M453 702C449.924 708.115 454.127 710.668 460 709L460 707L453 702z"/>
<path style="fill:#7e65cd; stroke:none;" d="M120 708L132 705C127.507 703.115 122.452 703.553 120 708z"/>
<path style="fill:#8169c7; stroke:none;" d="M207 707L220 710C217.554 705.987 210.342 702.66 207 707z"/>
<path style="fill:#b09ccd; stroke:none;" d="M176 707L193 706C188.905 704.282 179.084 703.471 176 707z"/>
<path style="fill:#b09edc; stroke:none;" d="M378 705L378 706L395 706L378 705z"/>
<path style="fill:#775ed4; stroke:none;" d="M610 705L614 716L610 705z"/>
<path style="fill:#876ccb; stroke:none;" d="M177 706C179.221 712.311 187.736 707.019 193 707L177 706z"/>
<path style="fill:#8261d6; stroke:none;" d="M578 706C573.765 718.45 563.499 716.977 554 712C557.376 718.887 564.195 718.458 571 719L580 706L578 706z"/>
<path style="fill:#7f66c1; stroke:none;" d="M1250 706L1250 707L1636 707L1602 706L1523 706L1250 706z"/>
<path style="fill:#d2c2ff; stroke:none;" d="M184 707L184 708L192 710C193.541 705.911 186.616 707 184 707z"/>
<path style="fill:#b09cf5; stroke:none;" d="M205 707L205 708L213 708L205 707z"/>
<path style="fill:#ac99eb; stroke:none;" d="M305 707L305 708L313 708L305 707z"/>
<path style="fill:#d4c6f9; stroke:none;" d="M386 707L386 708L394 710C395.541 705.911 388.616 707 386 707z"/>
<path style="fill:#7765b9; stroke:none;" d="M115 708L115 709L120 709L115 708z"/>
<path style="fill:#cfc1fe; stroke:none;" d="M563 709L563 710L567 710L563 709z"/>
<path style="fill:#d4c9f1; stroke:none;" d="M214 710L214 711L219 711L214 710z"/>
<path style="fill:#d0bdff; stroke:none;" d="M488 710L488 711L500 711L488 710z"/>
<path style="fill:#815fd8; stroke:none;" d="M443 711C449.073 723.877 459.587 712.96 468 719L478 717L478 716C465.425 715.99 453.781 718.011 443 711z"/>
<path style="fill:#856bd8; stroke:none;" d="M170 712C173.772 719.646 186.243 720.199 191 713C182.122 716.157 178.404 717.007 170 712z"/>
<path style="fill:#c6a7f3; stroke:none;" d="M487.333 712.667L487.667 713.333L487.333 712.667z"/>
<path style="fill:#b297f4; stroke:none;" d="M115 716L115 717L120 717L115 716z"/>
<path style="fill:#ccbcff; stroke:none;" d="M178 716L178 717L182 717L178 716z"/>
<path style="fill:#d0bcff; stroke:none;" d="M215 716L215 717L219 717L215 716z"/>
<path style="fill:#cfbaff; stroke:none;" d="M239 716L239 717L244 717L239 716z"/>
<path style="fill:#d3b9ff; stroke:none;" d="M314 716L314 717L318 717L314 716z"/>
<path style="fill:#d1c3ff; stroke:none;" d="M381 716L381 717L385 717L381 716z"/>
<path style="fill:#c8b1ff; stroke:none;" d="M422 716L422 717L426 717L422 716z"/>
<path style="fill:#d4c2ff; stroke:none;" d="M563 716L563 717L567 717L563 716z"/>
<path style="fill:#d3bdff; stroke:none;" d="M687 716L687 717L691 717L687 716z"/>
<path style="fill:#d2bef9; stroke:none;" d="M440 720L431 721L431 722L440 720z"/>
<path style="fill:#8462dd; stroke:none;" d="M215 760L215 754L213 754L213 776C223.669 778.378 225.309 777.196 234 772C234.636 775.993 236.007 777.364 240 778L240 777C234.825 774.053 233.31 766.533 232 761L238 772L239 772C240.031 767.505 240.763 763.313 245 761L243 769L247 769L247 761L251 761C251 766.074 252.717 773.942 248 777L248 778L252 778L252 774L256 776L256 762L253 763L252 754L248 754L248 755L251 755L251 758C244.784 759.461 240.481 760.288 239 767L238 767C236.504 760.852 234.035 760.021 228 760L229 754C222.677 752.685 220.086 757.03 215 760z"/>
<path style="fill:#8864e2; stroke:none;" d="M319 759C316.911 759.114 314.916 759.165 313.015 760.179C297.305 768.556 320.698 787.19 326 774L327 774C329.991 779.424 336.529 778 342 778L342 767L341 767L341 777C337.815 776.545 332.908 777.534 330.323 775.382C324.445 770.491 333.041 767.129 337 767C334.932 760.822 329.389 765.232 327 769C324.625 764.551 326.483 759.532 324.397 755.323C321.911 750.303 319.195 756.5 319 759z"/>
<path style="fill:#8362d5; stroke:none;" d="M454 754C454 760.308 451.443 772.993 457 777L457 761L461 761L461 775C468.499 778.047 472.251 777.555 480 776L480 761C492.071 762.724 493 764.526 493 777L506 778L506 777C498.196 776.411 495.733 771.174 497 764L494 765C492.885 757.414 480.318 756.1 479 764L478 764L474 761L475 759C468.704 757.965 466.542 760.027 462 764L459 760L460 758L457 755L462 758L463 755L454 754z"/>
<path style="fill:#cec4ff; stroke:none;" d="M209 754L208 762L209 754z"/>
<path style="fill:#faeaff; stroke:none;" d="M210 754L210 762C202.105 760.148 193.653 768.669 201.434 775.396C204.111 777.71 208.719 776.805 212 777L212 754L210 754z"/>
<path style="fill:#d5bdff; stroke:none;" d="M212 754L212 777L213 777L212 754z"/>
<path style="fill:#a295e7; stroke:none;" d="M264 754L262 761L262 762C265.828 761.18 265.714 756.974 264 754z"/>
<path style="fill:#faecff; stroke:none;" d="M265 754L265 762C257.147 760.57 248.754 768.157 256.653 775.258C259.479 777.798 264.481 776.809 268 777L268 754L265 754z"/>
<path style="fill:#fcebff; stroke:none;" d="M321 754L321 762C313.112 759.738 306.022 767.735 312.514 774.682C315.368 777.737 320.219 776.795 324 777L324 754L321 754z"/>
<path style="fill:#f9e9ff; stroke:none;" d="M450 754L450 761C442.995 761.083 434.622 768.912 442.318 775.397C445.073 777.718 449.659 777 453 777L453 754L450 754z"/>
<path style="fill:#c6aff5; stroke:none;" d="M453 754L453 777L454 777L453 754z"/>
<path style="fill:#9e93f3; stroke:none;" d="M729 754L729 777L730 777L729 754z"/>
<path style="fill:#f6edff; stroke:none;" d="M730 754L730 777L733 777L733 754L730 754z"/>
<path style="fill:#cfbaff; stroke:none;" d="M100 755C100.796 758.716 103.637 758 107 758L107 757L100 755z"/>
<path style="fill:#fbefff; stroke:none;" d="M101 755L101 757C110.877 757.753 108 769.609 108 777L110 777C110 769.609 107.123 757.753 117 757L117 755L101 755z"/>
<path style="fill:#d5bdf9; stroke:none;" d="M117 755L111 757L111 758C113.535 757.99 118.356 758.598 117 755z"/>
<path style="fill:#ffe6ff; stroke:none;" d="M120 755L120 758L124 758L124 755L120 755z"/>
<path style="fill:#f9e4ff; stroke:none;" d="M222 759L227 755L222 759z"/>
<path style="fill:#f2ddff; stroke:none;" d="M247 755L247 758L251 758L251 755L247 755z"/>
<path style="fill:#8061d8; stroke:none;" d="M449 755C447.431 760.168 441.854 760.918 437 762L437 776L438 776L438 773L439 773C441.931 778.812 447.214 778 453 778L453 777C449.725 776.997 445.94 777.437 443.133 775.397C434.764 769.313 442.41 761.246 450 761L449 755z"/>
<path style="fill:#f3e3ff; stroke:none;" d="M457 755L457 758L461 758L461 755L457 755z"/>
<path style="fill:#fbe7ff; stroke:none;" d="M466 759L475 759C472.433 754.364 469.099 755.294 466 759z"/>
<path style="fill:#fce7ff; stroke:none;" d="M512 755L516 758L512 755z"/>
<path style="fill:#fcecff; stroke:none;" d="M594 757L591 762L594 763C594 769.003 592.619 775.823 600 777C597.425 771.637 595.354 766.867 600 762L597 761L597 757L594 757z"/>
<path style="fill:#c7b0da; stroke:none;" d="M597 757L597 761L598 761L597 757z"/>
<path style="fill:#d3beff; stroke:none;" d="M107 758L107 777L108 777L107 758z"/>
<path style="fill:#d6bcff; stroke:none;" d="M110 758L110 777L111 777L110 758z"/>
<path style="fill:#865fe0; stroke:none;" d="M274 759L274 761C288.74 761.06 278.938 775.533 291 778.583C298.112 780.382 307.12 770.668 298 768L298 767L300 767L300 766C296.253 764.609 292.445 761.864 291 767C306.327 769.778 292.901 783.243 287 771L297 774L297 771C283.669 767.093 291.109 759.743 302 764L300 759L274 759z"/>
<path style="fill:#7f60e1; stroke:none;" d="M380 762L380 777L383 775C386.69 780.677 393.144 778.048 399 778C398.09 770.707 400.443 756.945 388 759.303C385.242 759.826 382.73 761.322 380 762z"/>
<path style="fill:#7d5de4; stroke:none;" d="M422 759L422 763L412 760L412 761C421.113 762.024 420 769.664 420 777C416.793 776.657 411.924 777.667 409.337 775.393C403.653 770.396 413.324 767.119 417 767C413.401 760.525 404.851 767.005 405.437 772.996C406.176 780.563 419.711 781.509 422 775C427.145 778.921 430.858 778.481 437 778L437 777C424.897 776.999 423 772.431 423 761L427 761L427 774L433 774C433 769.43 431.776 763.739 436 761L436 760L432 760L429 771C428.999 764.598 429.395 759.828 422 759z"/>
<path style="fill:#8264e0; stroke:none;" d="M351 763L348 761L351 780C356.299 778.739 361.862 780.116 365 775C369.497 779.149 374.158 778.999 380 779C377.224 775.403 373.704 777.875 370.148 775.934C365.49 773.39 367 765.398 367 761C361.081 761.111 355.893 758.415 351 763z"/>
<path style="fill:#7e67d1; stroke:none;" d="M546 762C553.039 760.494 556.618 764.032 557 771L547 771C549.29 775.108 551.927 774.437 556 773L554 776L554 777L559 777L559 761C554.821 760.67 549.063 758.495 546 762z"/>
<path style="fill:#ffe5ff; stroke:none;" d="M120 761L120 777L123 777L123 761L120 761z"/>
<path style="fill:#9e7fc5; stroke:none;" d="M123 761L123 777L124 777L123 761z"/>
<path style="fill:#d9ceff; stroke:none;" d="M127 761L127 777L128 777L127 761z"/>
<path style="fill:#faf0ff; stroke:none;" d="M128 761L128 777L130 777C130 771.609 128.897 765.853 135 764L135 761L128 761z"/>
<path style="fill:#f9edff; stroke:none;" d="M150 773C144.955 773.795 142.375 774.318 139 770L150 770C149.491 760.717 137.734 757.383 136.248 768.001C135.08 776.341 145.902 780.014 150 773z"/>
<path style="fill:#f7f0ff; stroke:none;" d="M161 765C165.041 764.3 167.126 763.808 170 767C166.092 767.035 154.609 770.865 162.319 775.969C165.028 777.763 169.873 776.852 173 777C173 773.088 174.15 766.817 171.821 763.434C168.955 759.269 162.473 760.812 161 765z"/>
<path style="fill:#fce9ff; stroke:none;" d="M186 771L186 774L176 772C181.839 783.577 196.645 769.508 180 767C182.352 763.097 185.161 765.092 189 766C183.579 755.251 169.924 767.624 186 771z"/>
<path style="fill:#d6bdff; stroke:none;" d="M216 761L216 774L217 774L216 761z"/>
<path style="fill:#fde5ff; stroke:none;" d="M217 761C217 772.562 216.815 776.338 229 777L229 761L226 761C226 775.043 219.002 775.027 219 761L217 761z"/>
<path style="fill:#c6aaf7; stroke:none;" d="M219 761L219 772L220 772L219 761z"/>
<path style="fill:#f7e9ff; stroke:none;" d="M232 761L237 777L240 777L245 761C240.268 762.555 239.666 767.474 239 772L238 772L235 761L232 761z"/>
<path style="fill:#9a93ff; stroke:none;" d="M247 761L247 777L248 777L247 761z"/>
<path style="fill:#f9f7ff; stroke:none;" d="M248 761L248 777L250 777L250 761L248 761z"/>
<path style="fill:#e5ceff; stroke:none;" d="M250 761L250 777L251 777L250 761z"/>
<path style="fill:#fcebff; stroke:none;" d="M272 766C275.833 765.048 278.538 763.048 281 767C276.817 767.049 267.091 771.172 274.317 775.969C276.995 777.747 281.89 776.879 285 777C284.278 773.11 285.154 766.587 282.972 763.318C279.714 758.436 273.316 761.667 272 766z"/>
<path style="fill:#fce9ff; stroke:none;" d="M297 771L297 774L288 772C291.645 784.007 308.533 768.809 291 767C293.365 763.317 296.258 765.161 300 766C296.705 755.146 282.468 765.727 292.034 769.735C293.605 770.393 295.346 770.653 297 771z"/>
<path style="fill:#fcf4ff; stroke:none;" d="M328 766C331.926 765 334.553 762.822 337 767C332.829 767.049 323.074 771.19 330.318 775.969C332.846 777.637 337.1 776.828 340 777C340 773.13 341.212 766.675 338.972 763.318C335.714 758.436 329.316 761.667 328 766z"/>
<path style="fill:#faeaff; stroke:none;" d="M361 771C358.625 775.032 355.859 773.325 352 772C355.512 783.57 372.553 769.428 355 767C357.352 763.097 360.161 765.092 364 766C359.96 755.439 346.784 765.859 356.034 769.735C357.604 770.393 359.346 770.653 361 771z"/>
<path style="fill:#f8f1ff; stroke:none;" d="M367 761C367 773.309 367.231 776.394 380 777L380 761L377 761C377 767.432 377.878 773.399 370 774L370 761L367 761z"/>
<path style="fill:#a494df; stroke:none;" d="M376 761L376 773L377 773L376 761z"/>
<path style="fill:#faeaff; stroke:none;" d="M384 766C387.833 765.048 390.538 763.048 393 767C388.634 767.052 378.221 771.278 386.148 775.969C389.04 777.681 393.733 776.872 397 777C396.278 773.11 397.154 766.587 394.972 763.318C391.714 758.436 385.316 761.667 384 766M408 765C412.042 764.3 414.126 763.808 417 767C413.122 767.046 402.018 771.076 409.319 775.971C412.048 777.801 416.835 776.828 420 777C420 773.088 421.15 766.817 418.821 763.434C415.955 759.269 409.473 760.812 408 765z"/>
<path style="fill:#9a91ee; stroke:none;" d="M423 761L423 773L424 773L423 761z"/>
<path style="fill:#f8ebff; stroke:none;" d="M424 761C424 772.08 423.646 776.999 436 777L436 761L434 761C433.999 767.312 434.716 773.404 427 774L427 761L424 761z"/>
<path style="fill:#a5a6f8; stroke:none;" d="M433 761L433 772L434 772L433 761z"/>
<path style="fill:#d6c2ff; stroke:none;" d="M436 761L436 777L437 777L436 761z"/>
<path style="fill:#a6acfa; stroke:none;" d="M457 761L457 777L458 777L457 761z"/>
<path style="fill:#f8eeff; stroke:none;" d="M458 761L458 777L460 777L460 761L458 761z"/>
<path style="fill:#dbbeff; stroke:none;" d="M460 761L460 777L461 777L460 761z"/>
<path style="fill:#f8efff; stroke:none;" d="M477 773C472.294 773.853 469.658 774.496 467 770L477 770C476.731 761.706 465.98 756.956 464.232 767.015C462.785 775.346 472.53 781.107 477 773z"/>
<path style="fill:#dcceff; stroke:none;" d="M480 761L480 777L481 777L480 761z"/>
<path style="fill:#f9e8ff; stroke:none;" d="M481 761L481 777L483 777C483 770.494 482.194 764.88 490 764L490 777L493 777C493 765.404 493.253 761.728 481 761z"/>
<path style="fill:#f8eaff; stroke:none;" d="M510 772C507.791 772.522 504.48 774.311 502.293 773.098C499.282 771.427 499.371 765.492 503.098 764.751C505.2 764.332 507.996 766.42 510 767C507.77 759.313 497.301 759.47 496.272 768.001C495.185 777.025 506.101 779.43 510 772z"/>
<path style="fill:#9c99e0; stroke:none;" d="M512 761L512 777L513 777L512 761z"/>
<path style="fill:#e8f0ff; stroke:none;" d="M513 761L513 777L516 777L516 761L513 761z"/>
<path style="fill:#fef0ff; stroke:none;" d="M520 766C523.926 765 526.553 762.822 529 767C524.829 767.049 515.074 771.19 522.318 775.969C524.846 777.637 529.1 776.828 532 777C532 773.13 533.212 766.675 530.972 763.318C527.714 758.436 521.315 761.667 520 766z"/>
<path style="fill:#fbecff; stroke:none;" d="M556 773C551.313 774.088 549.059 773.913 546 770L557 770C556.491 760.721 543.917 757.361 543.177 768.004C542.672 775.28 553.159 781.08 556 773z"/>
<path style="fill:#d2bcff; stroke:none;" d="M559 761L559 777L560 777L559 761z"/>
<path style="fill:#f9eeff; stroke:none;" d="M560 761L560 777L562 777C562 762.938 569 762.938 569 777L572 777C572.002 762.378 579 762.238 579 777L582 777C582 771.016 582.211 755.306 572 763L560 761z"/>
<path style="fill:#f5eafa; stroke:none;" d="M616 773C610.955 773.795 608.375 774.318 605 770L616 770C615.496 760.827 603.725 757.445 602.248 768.001C601.08 776.341 611.902 780.014 616 773z"/>
<path style="fill:#fbe8ff; stroke:none;" d="M619 761L619 777L622 777C622 762.938 629 762.938 629 777L632 777C632 762.938 639 762.938 639 777L641 777C641 767.922 642.164 757.854 630 763L619 761z"/>
<path style="fill:#dcceff; stroke:none;" d="M645 761L645 783L646 783L645 761z"/>
<path style="fill:#fceeff; stroke:none;" d="M646 761L646 783L648 783L648 776C655.903 777.854 664.333 769.343 656.566 762.603C653.835 760.233 649.338 761.243 646 761z"/>
<path style="fill:#fae8ff; stroke:none;" d="M665.059 762.029C656.446 766.696 664.036 781.22 672.656 775.821C680.344 771.005 673.921 757.225 665.059 762.029z"/>
<path style="fill:#d0bfff; stroke:none;" d="M687 761L687 777L688 777L687 761z"/>
<path style="fill:#feecff; stroke:none;" d="M688 761L688 777L690 777C690 771.038 689.021 765.455 696 764L696 761L688 761z"/>
<path style="fill:#fdecff; stroke:none;" d="M710 773C705.378 773.837 702.446 774.603 700 770L710 770C709.76 762.603 700.168 756.383 697.434 766.019C694.998 774.601 705.115 781.362 710 773z"/>
<path style="fill:#f6f3fe; stroke:none;" d="M714 765C718.041 764.3 720.126 763.808 723 767C719.017 767.036 707.477 770.801 715.318 775.969C718.035 777.76 722.867 776.851 726 777C726 773.088 727.15 766.817 724.821 763.434C721.955 759.269 715.472 760.812 714 765z"/>
<path style="fill:#8065cc; stroke:none;" d="M370 762L370 774C373.194 773.987 375.271 774.403 376 771L371 772L370 762z"/>
<path style="fill:#8562da; stroke:none;" d="M140 768L147 768C145.453 762.922 141.547 762.922 140 768z"/>
<path style="fill:#cab9ff; stroke:none;" d="M160 763L163 766L163 765L160 763z"/>
<path style="fill:#8265bf; stroke:none;" d="M162 767L170 767C167.619 762.741 164.888 763.577 162 767z"/>
<path style="fill:#c4b2fc; stroke:none;" d="M407 763L411 766L411 765L407 763z"/>
<path style="fill:#856dc5; stroke:none;" d="M467 768L474 768C472.447 762.922 468.819 763.264 467 768z"/>
<path style="fill:#806abf; stroke:none;" d="M546 768L554 768C551.983 762.747 548.543 763.507 546 768z"/>
<path style="fill:#ccb5f9; stroke:none;" d="M574 763L574 764L578 764L574 763z"/>
<path style="fill:#c1acfb; stroke:none;" d="M597 763L597 774L598 774L597 763z"/>
<path style="fill:#8067cf; stroke:none;" d="M606 768L613 768C611.196 763.112 607.58 762.803 606 768z"/>
<path style="fill:#815ce8; stroke:none;" d="M667.313 764.176C663.424 766.01 664.819 776.037 669.791 773.824C674.537 771.712 672.496 761.732 667.313 764.176z"/>
<path style="fill:#ceb6ff; stroke:none;" d="M713 763L716 766L716 765L713 763z"/>
<path style="fill:#7f67bb; stroke:none;" d="M715 768L723 767C720.427 762.398 717.135 763.782 715 768z"/>
<path style="fill:#7f65c8; stroke:none;" d="M209 774C208.999 772.349 209.096 770.641 208.941 768.995C207.93 758.219 194.865 773.53 209 774z"/>
<path style="fill:#7b65d2; stroke:none;" d="M264 774L264 764C255.712 764.64 255.712 773.36 264 774z"/>
<path style="fill:#7e5bd9; stroke:none;" d="M315.599 765.047C312.196 767.586 314.936 776.284 319.401 772.953C322.804 770.414 320.064 761.716 315.599 765.047z"/>
<path style="fill:#825de1; stroke:none;" d="M444.738 765.047C441.394 767.602 444.061 776.267 448.412 772.953C451.713 770.438 449.092 761.719 444.738 765.047z"/>
<path style="fill:#7c63cb; stroke:none;" d="M563 764L563 776L564 776L565 765L567 765L568 778L573 778L573 777L569 777C569 771.03 570.481 764.583 563 764z"/>
<path style="fill:#8366c2; stroke:none;" d="M573 767L577 765L578 778L582 778L582 777L579 777C579 773.83 579.9 769.062 578.667 766.111C577.172 762.536 573.614 764.136 573 767z"/>
<path style="fill:#d5c0ff; stroke:none;" d="M641 764L641 777L642 777L641 764z"/>
<path style="fill:#8367cb; stroke:none;" d="M649 764C649.001 771.094 653.674 779.391 656 768L655 768L651 773L650 765L655 766L649 764z"/>
<path style="fill:#7a66c7; stroke:none;" d="M700 768L707 768C705.469 763.38 701.741 763.671 700 768z"/>
<path style="fill:#c8a6ff; stroke:none;" d="M130 765L130 777L131 777L130 765z"/>
<path style="fill:#8358ff; stroke:none;" d="M208 772L208 765C202.417 765.97 202.374 771.06 208 772z"/>
<path style="fill:#c4bbfc; stroke:none;" d="M209 765L209 773L210 773L209 765z"/>
<path style="fill:#9b95dd; stroke:none;" d="M264 765L264 773L265 773L264 765z"/>
<path style="fill:#c6abfc; stroke:none;" d="M340 765L340 777L341 777L340 765z"/>
<path style="fill:#c6abf0; stroke:none;" d="M483 765L483 777L484 777L483 765z"/>
<path style="fill:#c6b0fb; stroke:none;" d="M532 765L532 777L533 777L532 765z"/>
<path style="fill:#d6c0ff; stroke:none;" d="M562 765L562 777L563 777L562 765z"/>
<path style="fill:#9e93e2; stroke:none;" d="M628 765L628 777L629 777L628 765z"/>
<path style="fill:#cac0fd; stroke:none;" d="M638 765L638 777L639 777L638 765z"/>
<path style="fill:#c6adfe; stroke:none;" d="M648 765L648 773L649 773L648 765z"/>
<path style="fill:#8560fe; stroke:none;" d="M650 765L651 773L656 766L650 765z"/>
<path style="fill:#dabbff; stroke:none;" d="M690 765L690 777L691 777L690 765z"/>
<path style="fill:#7d5aff; stroke:none;" d="M259 766L260 773C263.5 770.467 263.148 767.375 259 766z"/>
<path style="fill:#ad93f4; stroke:none;" d="M439 766L439 771L440 771L439 766z"/>
<path style="fill:#ab92ee; stroke:none;" d="M477 766L477 770L467 770L467 771L478 771L477 766z"/>
<path style="fill:#a392f8; stroke:none;" d="M463 767L463 771L464 771L463 767z"/>
<path style="fill:#b899f6; stroke:none;" d="M664 767L664 771L665 771L664 767z"/>
<path style="fill:#f9e3ff; stroke:none;" d="M678 767L678 769L685 769L685 767L678 767z"/>
<path style="fill:#a69cf3; stroke:none;" d="M696 767L696 772L697 772L696 767z"/>
<path style="fill:#ad90ea; stroke:none;" d="M710 768L700 770L700 771C702.726 771 711.659 772.402 710 768z"/>
<path style="fill:#7b68d4; stroke:none;" d="M163 774L169 774L169 769C165.259 769.43 163.661 770.186 163 774z"/>
<path style="fill:#bbaaf8; stroke:none;" d="M169 769L169 773L170 773L169 769z"/>
<path style="fill:#8475b6; stroke:none;" d="M276 769L276 770L280 773L281 773L281 769L276 769z"/>
<path style="fill:#8968d9; stroke:none;" d="M331 774C334.864 773.7 336.348 772.911 337 769C333.136 769.3 331.652 770.089 331 774z"/>
<path style="fill:#846acd; stroke:none;" d="M387 774C390.864 773.7 392.348 772.911 393 769C389.136 769.3 387.652 770.089 387 774z"/>
<path style="fill:#7e66d8; stroke:none;" d="M410 773L416 774L416 769L410 773z"/>
<path style="fill:#a49bd2; stroke:none;" d="M416 769L416 773L417 773L416 769z"/>
<path style="fill:#796bb8; stroke:none;" d="M523 774C526.864 773.7 528.348 772.911 529 769C525.136 769.3 523.652 770.089 523 774z"/>
<path style="fill:#ae96e4; stroke:none;" d="M678 769L678 770L685 770L678 769z"/>
<path style="fill:#8061e2; stroke:none;" d="M716 770C717.099 773.321 718.59 773.737 722 774L722 769L716 770z"/>
<path style="fill:#b8aff0; stroke:none;" d="M722 769L722 773L723 773L722 769z"/>
<path style="fill:#ab95e8; stroke:none;" d="M139 772L150 771C146.612 769.578 141.554 769.077 139 772z"/>
<path style="fill:#cebbff; stroke:none;" d="M271 770L271 774L272 774L271 770z"/>
<path style="fill:#8164e4; stroke:none;" d="M275 770L275 774L280 774L280 770L275 770z"/>
<path style="fill:#aa8ef4; stroke:none;" d="M546 772L557 771C553.612 769.578 548.554 769.077 546 772z"/>
<path style="fill:#af9ced; stroke:none;" d="M605 772L616 771C612.612 769.578 607.554 769.077 605 772z"/>
<path style="fill:#b799fb; stroke:none;" d="M287 774L288 774L290 772C287.86 770.882 287.473 771.749 287 774z"/>
<path style="fill:#c7b1ff; stroke:none;" d="M351 774L352 774L354 772C351.86 770.882 351.473 771.749 351 774z"/>
<path style="fill:#bca7f2; stroke:none;" d="M357 774L357 775L360 775L357 774z"/>
<path style="fill:#b59fe8; stroke:none;" d="M502 774L502 775L505 775L502 774z"/>
<path style="fill:#c4a7ff; stroke:none;" d="M598 774L598 775L600 777L601 777L598 774z"/>
<path style="fill:#c5a7ff; stroke:none;" d="M648 776L648 783L649 783L650 776L648 776z"/>
</svg>
